<?xml version="1.0" encoding="UTF-8"?>
<svg id="Layer_1" data-name="Layer 1" xmlns="http://www.w3.org/2000/svg" xmlns:xlink="http://www.w3.org/1999/xlink" viewBox="0 0 302.79221483 232.322181">
  <defs>
    <style>
      .cls-1 {
        clip-path: url(#clippath-11);
      }

      .cls-2 {
        clip-path: url(#clippath-2);
      }

      .cls-3 {
        clip-path: url(#clippath-6);
      }

      .cls-4 {
        clip-path: url(#clippath-7);
      }

      .cls-5 {
        clip-path: url(#clippath-1);
      }

      .cls-6 {
        clip-path: url(#clippath-4);
      }

      .cls-7 {
        clip-path: url(#clippath-9);
      }

      .cls-8 {
        clip-path: url(#clippath);
      }

      .cls-9 {
        fill: none;
      }

      .cls-10 {
        clip-path: url(#clippath-3);
      }

      .cls-11 {
        clip-path: url(#clippath-8);
      }

      .cls-12 {
        clip-path: url(#clippath-5);
      }

      .cls-13 {
        fill: #a54a2f;
      }

      .cls-14 {
        clip-path: url(#clippath-10);
      }

      .cls-15 {
        fill: #fef0e7;
      }
    </style>
    <clipPath id="clippath">
      <rect class="cls-9" x="77.94740019" y="27.08010945" width="143.00000426" height="143.00000426"/>
    </clipPath>
    <clipPath id="clippath-1">
      <rect class="cls-9" x="60.22864966" y="107.64261185" width="81.00000241" height="48.49479311"/>
    </clipPath>
    <clipPath id="clippath-2">
      <rect class="cls-9" x="92.68177563" y="102.13740335" width="32.00000095" height="32.17187596"/>
    </clipPath>
    <clipPath id="clippath-3">
      <rect class="cls-9" x="157.46823589" y="107.64261185" width="80.5781274" height="48.49479311"/>
    </clipPath>
    <clipPath id="clippath-4">
      <rect class="cls-9" x="174.01511139" y="102.13740335" width="32.00000095" height="32.17187596"/>
    </clipPath>
    <clipPath id="clippath-5">
      <rect class="cls-9" x="111.17656785" y="58.93427707" width="76.00000226" height="86.00000256"/>
    </clipPath>
    <clipPath id="clippath-6">
      <rect class="cls-9" x="111.17656785" y="80.97594439" width="76.00000226" height="13.33333373"/>
    </clipPath>
    <clipPath id="clippath-7">
      <rect class="cls-9" x="130.01511008" y="58.93427707" width="38.66666782" height="86.00000256"/>
    </clipPath>
    <clipPath id="clippath-8">
      <rect class="cls-9" x="108.68177611" y="40.75198486" width="13.10416706" height="24.22395906"/>
    </clipPath>
    <clipPath id="clippath-9">
      <rect class="cls-9" x="102.7859426" y="55.6426103" width="8.56250026" height="15.10937545"/>
    </clipPath>
    <clipPath id="clippath-10">
      <rect class="cls-9" x="190.42136188" y="63.96552722" width="12.92708372" height="23.67708404"/>
    </clipPath>
    <clipPath id="clippath-11">
      <rect class="cls-9" x="200.68177885" y="79.64261102" width="8.41145858" height="14.32291709"/>
    </clipPath>
  </defs>
  <path class="cls-13" d="M68.31579793,55.7365841c-.2395827-.06770802-.41666668-.02083333-.54166668,.14583334l-.37500001,.66666669-3.00000009-1.66666672-.125-.60416668,5.04166682-.33333334,1.31250004-2.3958334c-.22395866-.0677077-.40625065-.02083333-.54166668,.14583334l-.0625,.10416667-6.18750018,.54166668-.66666669-2.85416675c-.13541603-.56770835-.18750001-.94270836-.14583334-1.12500003,.04166667-.05208206,.07291603-.109375,.08333334-.16666667,.125-.20833334,.1145827-.35937501-.04166667-.45833335-.02604135-.02604167-.0625-.046875-.10416667-.0625l-1.29166671,2.31250007,.35416668,.18750001,.56250002-1.00000003,1.20833337,5.37500016-3.20833343-1.79166672,.56250002-1.00000003-.35416668-.18750001-2.0833334,3.75000011,.35416668,.18750001,.54166668-1.00000003,6.8125002,3.79166678-.54166668,1.00000003,.35416668,.18750001,2.0833334-3.75000011Z"/>
  <path class="cls-13" d="M73.96365577,37.25401926l-2.16666673-1.66666672-4.45833347,5.60416683,.29166668,.25000001,.70833335-.89583336,6.12500018,4.85416681-.70833335,.89583336,.31250001,.25000001,4.45833347-5.60416683-2.12500006-1.75000005-.27083334,.33333334,.56250002,.83333336c.42708398,.66666669,.53124938,1.26562536,.31250001,1.79166672-.08333334,.14062532-.18229199,.28125064-.29166668,.41666668l-1.00000003,1.27083337-2.97916676-2.37500007,1.70833338-2.16666673-.35416668-.27083334-1.70833338,2.16666673-2.79166675-2.2083334,1.00000003-1.27083337c.48958398-.60937438,1.11979202-.79687439,1.89583339-.56250002,.08333334,.01562564,.16666667,.03645897,.25000001,.0625l.95833336,.37500001,.27083334-.33333334Zm-4.31250013-1.12500003c.03124937-.25000001-.05208397-.44791541-.25000001-.60416668-.25000001-.19270834-.52604136-.23958461-.83333336-.14583334-.15104104,.04166667-.27083334,.11458207-.35416668,.20833334-.08333334,.140625-.125,.29166668-.125,.45833335-.01041603,.16666667,.04166667,.54166668,.16666667,1.12500003,.09895897,.55729232,.16145897,1.1041667,.18750001,1.64583338l.37500001,.02083333c.07291603-.30208398,.28645866-.927084,.64583335-1.87500006,.125-.38541731,.18750001-.66666669,.18750001-.83333336Z"/>
  <path class="cls-13" d="M88.44268045,31.07007946l-1.97916673-2.2083334-.33333334,.29166668,.62500002,1.31250004c.31770802,.75000002,.2395827,1.35416671-.22916667,1.81250005l-2.0833334,1.91666672-1.64583338-9.16666694-.22916667-.25000001-4.77083348,4.37500013,1.68750005,2.00000006,.31250001-.31250001-.43750001-1.35416671c-.1770827-.62500002-.10416667-1.1041667,.22916667-1.43750004l1.72916672-1.62500005,1.58333338,9.31250028,.20833334,.22916667,5.33333349-4.89583348Z"/>
  <path class="cls-13" d="M99.53154797,23.05375231l-1.62500005-2.47916674-.35416668,.25000001,.41666668,1.37500004c.17708397,.79166669,.00520802,1.37500004-.52083335,1.75000005l-2.35416674,1.58333338-.18750001-9.33333361-.18750001-.29166668-5.39583349,3.60416677,1.35416671,2.22916673,.35416668-.25000001-.20833334-1.39583337c-.08333334-.66666669,.0625-1.13541606,.43750001-1.41666671l1.95833339-1.31250004,.14583334,9.43750028,.16666667,.25000001,6.00000018-4.00000012Z"/>
  <path class="cls-13" d="M109.26486532,11.5369673l-1.18750004-2.47916674-6.50000019,3.00000009,.16666667,.35416668,1.0416667-.47916668,3.27083343,7.10416688-1.0416667,.47916668,.16666667,.35416668,6.50000019-3.00000009-1.1041667-2.52083341-.37500001,.18750001,.10416667,1.02083336c.09375064,.76562534-.08333334,1.33333337-.54166668,1.70833338-.125,.09895865-.26562533,.18229199-.41666668,.25000001l-1.47916671,.68750002-1.60416671-3.45833344,2.50000007-1.14583337-.16666667-.41666668-2.50000007,1.14583337-1.50000004-3.22916676,1.47916671-.68750002c.70833335-.31770771,1.35416671-.19791731,1.93750006,.35416668,.05208397,.07291603,.1145827,.13541731,.18750001,.18750001l.68750002,.77083336,.37500001-.18750001Z"/>
  <path class="cls-13" d="M124.78301357,12.56807492l-.81250002-2.97916676-.39583335,.10416667v1.39583337c-.04166667,.682292-.21875064,1.16145869-.52083335,1.43750004-.18229199,.15624937-.40625065,.26562533-.66666669,.33333334l-1.41666671,.41666668-2.1458334-7.52083356,1.14583337-.33333334-.125-.37500001-4.18750012,1.18750004,.125,.37500001,1.1041667-.31250001,2.1458334,7.52083356-1.1041667,.31250001,.10416667,.37500001,6.7500002-1.93750006Z"/>
  <path class="cls-13" d="M143.786249,10.19069448c-.05729199-.23437467-.18750001-.36458402-.39583335-.39583335l-.75000002,.02083333-.08333334-3.4375001,.45833335-.43750001,2.81250008,4.22916679,2.75000008-.08333334c-.0572923-.23437469-.18750001-.35937469-.39583335-.37500001h-.125l-3.60416677-5.10416682,2.1458334-2.02083339c.41666668-.40104104,.71354105-.62500002,.89583336-.66666669,.0677077-.0104173,.1302077-.02083333,.18750001-.02083333,.23437437,0,.35937437-.08333334,.37500001-.25000001,.0104173-.0520827,.02083333-.10937437,.02083333-.16666667l-2.64583341,.0625v.39583335l1.14583337-.02083333-4.02083345,3.77083345-.08333334-3.68750011,1.14583337-.02083333v-.39583335l-4.29166679,.08333334v.39583335l1.14583337-.02083333,.16666667,7.81250023-1.14583337,.02083333v.39583335l4.29166679-.08333334Z"/>
  <path class="cls-13" d="M162.59590125,5.79166684l.35416668-2.72916675-7.08333354-1.0416667-.0625,.39583335,1.12500003,.16666667-1.12500003,7.7291669-1.12500003-.16666667-.0625,.39583335,7.08333354,1.0416667,.43750001-2.72916675-.41666668-.0625-.43750001,.93750003c-.34895898,.68229176-.81250002,1.05208404-1.39583337,1.12500003-.15624937,.01041734-.32291604,.00520802-.50000001-.02083333l-1.60416671-.22916667,.54166668-3.77083345,2.72916675,.39583335,.0625-.43750001-2.72916675-.39583335,.52083335-3.52083344,1.60416671,.22916667c.77604105,.1145827,1.25520773,.56250002,1.43750004,1.35416671,.02604103,.08333334,.04687437,.16666667,.0625,.25000001l.16666667,1.02083336,.41666668,.0625Zm-1.18750004-4.29166679c.21874937-.10937437,.35416668-.29166668,.39583335-.54166668,.04166667-.30208271-.0572923-.56250002-.29166668-.77083336-.1145827-.09375064-.2395827-.15624937-.37500001-.18750001-.15624937,0-.30208398,.03645897-.43750001,.10416667-.14062564,.08333334-.43750001,.32291604-.89583336,.70833335-.44791604,.36458271-.88541733,.69791605-1.31250004,1.00000003l.14583334,.31250001c.29166668-.08333334,.94270804-.20833334,1.95833339-.37500001,.38541731-.08333334,.65624938-.16666667,.81250002-.25000001Z"/>
  <path class="cls-13" d="M175.80928055,12.85735105c.23437437-.75000002,.02604103-1.51041735-.62500002-2.29166673-.1145827-.10937469-.51041732-.52083335-1.18750004-1.2291667-.65625066-.63541605-1.01562535-1.18750004-1.08333337-1.64583338-.03125064-.20833334-.01041603-.42187438,.0625-.64583335,.16666667-.54166668,.53124938-.81250002,1.1041667-.81250002,.1770827,0,.36458398,.03124937,.56250002,.08333334,.75000002,.2395827,1.2291667,.69791605,1.43750004,1.37500004,.10937437,.432292,.09374937,.89062534-.04166667,1.37500004l.54166668,.16666667,.77083336-2.47916674c-.26562564-.08333334-.44791604-.04166667-.54166668,.125-.04166667,.0572923-.07291603,.125-.08333334,.20833334-.66666669-.58333335-1.41666671-1.00000003-2.25000007-1.25000004-1.098959-.34374937-2.01041736-.32291731-2.72916675,.0625-.48958398,.26562564-.80729201,.65624938-.95833336,1.1666667-.23958398,.75000002-.01041603,1.5364587,.68750002,2.35416674,.09375064,.09895865,.51041732,.51041605,1.25000004,1.2291667,.65104105,.65624938,1.02083336,1.20312535,1.1041667,1.64583338,0,.19791735-.03125064,.39062535-.08333334,.58333335-.20833334,.66666669-.63541605,1.01041606-1.27083337,1.0416667-.2395827,.02604135-.47916668,0-.72916669-.08333334-.97395868-.30729199-1.51562536-.95833336-1.62500005-1.95833339-.05729199-.42708271-.02083333-.89583336,.10416667-1.39583337l-.54166668-.16666667-.89583336,2.89583342c.23437469,.08333334,.40104136,.05208266,.50000001-.08333334,.04166667-.08333334,.08333334-.19791667,.125-.35416668,.56770803,.69270804,1.3437494,1.19270805,2.3333334,1.50000004,1.1666667,.35937469,2.1458334,.33854136,2.93750009-.0625,.55208399-.29166668,.927084-.74479201,1.12500003-1.35416671Z"/>
  <path class="cls-13" d="M187.80460154,20.79636699l1.33333337-2.62500008-.39583335-.20833334-.9791667,1.06250003c-.59895899,.55208271-1.19791734,.69791732-1.79166672,.43750001l-2.54166674-1.25000004,7.95833357-4.85416681,.14583334-.31250001-5.81250017-2.85416675-1.2291667,2.31250007,.39583335,.18750001,1.08333337-.91666669c.52604105-.40104104,1.01041606-.50520771,1.45833338-.31250001l2.10416673,1.0416667-8.06250024,4.83333348-.14583334,.27083334,6.47916686,3.18750009Z"/>
  <path class="cls-13" d="M196.94620338,26.56016111c.09374937-.22395866,.0625-.40624938-.10416667-.54166668l-.60416668-.41666668,4.37500013-6.45833353,.93750003,.62500002,.22916667-.33333334-3.54166677-2.3958334-.22916667,.33333334,.93750003,.64583335-4.37500013,6.45833353-.93750003-.64583335-.22916667,.33333334,3.54166677,2.3958334Zm4.83333348-8.52083359c.25000001-.01041603,.44270771-.125,.58333335-.33333334,.1770827-.26041604,.20833334-.54687438,.08333334-.85416669-.0729173-.125-.15625064-.21875064-.25000001-.29166668-.125-.0677077-.28125064-.10937437-.45833335-.125-.15625064,0-.52083335,.08333334-1.1041667,.25000001-.55729232,.14062564-1.098959,.25000001-1.62500005,.33333334l.02083333,.37500001c.29166668,.04166667,.92187439,.20833334,1.89583339,.50000001,.38541731,.08333334,.67187438,.13541731,.85416669,.14583334Z"/>
  <path class="cls-13" d="M206.5655274,34.500235c.10937469-.22395866,.10416667-.40625065-.02083333-.54166668l-.72916669-.66666669,5.22916682-5.81250017,.18750001,.16666667c.51041605,.45833335,.66666669,1.01562535,.45833335,1.66666672-.04166667,.15624937-.09895897,.31250001-.16666667,.47916668l-.52083335,1.25000004,.31250001,.29166668,2.02083339-2.3333334-5.50000016-4.95833348-2.12500006,2.25000007,.33333334,.29166668,1.18750004-.66666669c.56770771-.30208271,1.0416667-.42187469,1.41666671-.35416668,.25000001,.05729199,.48958398,.19791604,.72916669,.41666668l.18750001,.16666667-5.22916682,5.81250017-1.00000003-.91666669-.27083334,.29166668,3.5000001,3.16666676Z"/>
  <path class="cls-13" d="M221.01151171,41.93010582l2.12500006-1.77083339-4.50000013-5.56250017-.31250001,.25000001,.70833335,.89583336-6.06250018,4.91666681-.70833335-.89583336-.31250001,.25000001,4.50000013,5.56250017,2.16666673-1.68750005-.25000001-.33333334-.9791667,.39583335c-.72395867,.26041604-1.32291734,.22916667-1.79166672-.10416667-.11458397-.1145827-.22395866-.2395827-.33333334-.37500001l-1.02083336-1.27083337,2.95833342-2.3958334,1.72916672,2.1458334,.33333334-.27083334-1.72916672-2.1458334,2.77083342-2.25000007,1.02083336,1.27083337c.48437438,.59895867,.52604105,1.25000004,.125,1.95833339-.03124937,.08333334-.07291603,.16666667-.125,.25000001l-.56250002,.83333336,.25000001,.33333334Z"/>
  <path class="cls-13" d="M223.34950413,56.40028041c.16666667-.18229199,.20833334-.36458398,.125-.54166668l-.47916668-.85416669,6.77083354-3.89583345,.125,.20833334c.33333334,.59374938,.31250001,1.17187472-.0625,1.72916672-.09895897,.10937469-.20833334,.2395827-.33333334,.39583335l-.89583336,1.02083336,.20833334,.37500001,2.66666675-1.58333338-3.70833344-6.43750019-2.72916675,1.50000004,.22916667,.37500001,1.33333337-.27083334c.63541732-.125,1.12500003-.08854135,1.45833338,.10416667,.21875064,.15625064,.41666668,.36458398,.58333335,.62500002l.125,.22916667-6.77083354,3.89583345-.68750002-1.1666667-.33333334,.20833334,2.37500007,4.08333346Z"/>
  <path class="cls-13" d="M228.93538076,68.96461184c.19270802-.15624937,.27083334-.32812565,.22916667-.52083335l-.35416668-.91666669,7.29166688-2.81250008,.08333334,.22916667c.25000001,.63541605,.13541603,1.20833337-.33333334,1.70833338-.11458397,.09374937-.23958398,.20833334-.37500001,.33333334l-1.06250003,.87500003,.16666667,.41666668,2.85416675-1.18750004-2.66666675-6.91666687-2.89583342,1.06250003,.14583334,.41666668,1.37500004-.0625c.63541605-.0104173,1.1093744,.09375064,1.41666671,.31250001,.20833334,.18229199,.36458398,.41666668,.47916668,.70833335l.08333334,.22916667-7.29166688,2.81250008-.47916668-1.25000004-.37500001,.14583334,1.70833338,4.4166668Z"/>
  <g class="cls-8">
    <path class="cls-15" d="M149.44740232,27.08010945c-39.48437618,0-71.50000213,32.01041762-71.50000213,71.50000213s32.01562595,71.50000213,71.50000213,71.50000213c39.48958451,0,71.50000213-32.01041762,71.50000213-71.50000213S188.93698683,27.08010945,149.44740232,27.08010945"/>
  </g>
  <g class="cls-5">
    <path class="cls-13" d="M140.64011039,154.59052992c-3.30208343-1.2291667-5.80208351-4.03645845-7.8385419-6.82291687-2.17187506-2.97916676-3.95312512-6.21875019-6.07812518-9.22395861-2.77083342-3.88020845-5.78125017-7.55729189-9.04166694-11.03125033-1.64062505-1.75520839-3.3281251-3.4687501-5.07291682-5.12500015-1.55208338-1.47916671-3.12500009-2.95833342-4.78645848-4.31250013-2.62500008-2.10937506-5.4427085-3.91145845-8.45833359-5.40625016-3.30729177-1.69270838-6.76041687-2.96875009-10.36458364-3.83854178-3.4531251-.80208336-7.03125021-1.14583337-10.55729198-.62500002-3.38020843,.43229168-6.33854186,1.80208339-8.86979193,4.09375012-1.43750004,1.34375004-2.83333342,2.73958341-4.15625012,4.19270846-1.39062504,1.54166671-2.75000008,3.19791676-3.70312511,5.05729182-.85416669,1.68229172-1.20312504,3.53125011-1.37500004,5.40104183-.18750001,2.05208339-.11979167,4.09895846,.20833334,6.13020852,.13020834,.85937503,.34375001,1.69270838,.64062502,2.50520841,.09895834,.32291668,.31770834,.50520835,.65104169,.54687502,.33333334,.046875,.58854168-.07291667,.76562502-.35937501,1.52083338-2.46354174,1.61979171-5.52604183,3.2031251-7.9479169,.42708335-.59895835,.88541669-1.1666667,1.37500004-1.70833338,.43229168-.52083335,.86979169-1.03645836,1.31250004-1.53645838,.84895836-.98958336,1.79687505-1.87500006,2.84375008-2.65104175,1.26562504-.90104169,2.69270841-1.52604171,4.09895846-2.16666673,1.50520838-.68750002,3.03125009-1.32812504,4.57812514-1.91666672,3.14583343-1.23437504,6.38541686-2.14062506,9.71354196-2.71875008,1.71354172-.28125001,3.4375001-.44791668,5.17187515-.51041668,1.76562505-.09895834,3.5000001,.078125,5.20312516,.53125002,.9635417,.28125001,1.37500004-1.2291667,.41145835-1.50520838-3.10416676-.91145836-6.46354186-.64583335-9.61979195-.24479167-3.46354177,.46354168-6.83333354,1.29687504-10.1093753,2.50000007-1.64062505,.58854168-3.25520843,1.25000004-4.84895848,1.94270839-1.54166671,.60937502-3.03645842,1.31770837-4.48958347,2.12500006-2.45312507,1.47395838-4.23437513,3.67187511-6.05729185,5.83854184-.58333335,.66666669-1.08333337,1.39583337-1.48958338,2.18750007-.36458334,.77083336-.67187502,1.56770838-.91145836,2.38541674-.48437501,1.58333338-.85937503,3.18750009-1.72916672,4.59895847l1.42187504,.18750001c-.60416668-1.72395838-.90104169-3.5000001-.89583336-5.33333349-.07291667-1.89583339,.11458334-3.76041678,.56250002-5.60416683,.45833335-1.76041672,1.45833338-3.32291677,2.57291674-4.75000014,1.31250004-1.61979171,2.71875008-3.15104176,4.21875013-4.5885418,1.18750004-1.17708337,2.3333334-2.3020834,3.75520845-3.15625009,1.34375004-.79687502,2.77604175-1.37500004,4.30208346-1.72395838,3.18229176-.75000002,6.58854186-.60416668,9.82291696,0,3.5156251,.68229169,6.89062521,1.78645839,10.13020864,3.31770843,3.07812509,1.40625004,5.97916684,3.12500009,8.69270859,5.15625015,1.39583337,1.04687503,2.79687508,2.3333334,4.13020846,3.56250011,1.73437505,1.59895838,3.4218751,3.24479176,5.06770848,4.93750015,3.27604176,3.36979177,6.32291686,6.93750021,9.14583361,10.70312532,2.22916673,2.98958342,4.09375012,6.21875019,6.18229185,9.30208361,2.04687506,3.02604176,4.38020846,6.05208351,7.52604189,7.9791669,.74479169,.45312501,1.52604171,.83333336,2.34375007,1.1354167,.20312501,.05208333,.40104168,.02604167,.58333335-.078125,.18750001-.10416667,.30729168-.26041667,.36979168-.46875001,.05208333-.20833334,.02604167-.40625001-.08333334-.58854168-.10416667-.18750001-.26041667-.31250001-.46354168-.37500001h-.00520833Z"/>
  </g>
  <g class="cls-2">
    <path class="cls-13" d="M122.25469318,133.89261263c-1.59895838-1.56250005-2.68229175-4.28645846-3.80729178-6.25520852-1.49479171-2.59895841-3.03125009-5.10416682-4.72916681-7.59375023-3.3906251-4.96875015-6.77083354-10.94791699-12.32291703-13.76562541-2.26562507-1.14583337-5.15104182-2.42187507-7.7604169-1.80729172,3.45833344-1.1822917,6.38541686-2.88020842,10.22395864-2.17187506,3.27083343,.60416668,6.92708354,1.72916672,9.66145862,3.72916678,5.6614585,4.15625012,10.24479197,11.44270867,10.29166697,18.69791722,0,2.05729173-2.48437507,7.65625023-1.18750004,9.19791694"/>
  </g>
  <path class="cls-13" d="M129.00469338,142.68427956c-4.36458346-1.67187505-8.59895859-3.64583344-12.69270871-5.90625018-2.05208339-1.15625003-4.03645845-2.41666674-5.95312518-3.79166678-1.79166672-1.2447917-3.47916677-2.61979174-5.05208348-4.13541679-1.57291671-1.56250005-3.10416676-3.33333343-5.13541682-4.31250013l-.39062501,1.45312504c1.93229172,.06770834,3.82812511,.72916669,5.58854183,1.52083338,1.93750006,.91145836,3.81250011,1.93750006,5.61979183,3.08854176,3.79166678,2.3333334,7.61979189,4.66145847,11.104167,7.44270856,2.10937506,1.66666672,4.04687512,3.51041677,5.81770851,5.5364585,.15104167,.15104167,.33333334,.22395834,.54687502,.21875001,.20833334,0,.39062501-.078125,.54166668-.22916667,.14583334-.15104167,.22395834-.33333334,.22395834-.54687502s-.07291667-.39583335-.21875001-.54687502c-3.19270843-3.70312511-7.08854188-6.70833353-11.14583367-9.38541695-1.81770839-1.1979167-3.67708344-2.34375007-5.52604183-3.49479177-1.85416672-1.18750004-3.76562511-2.26041673-5.7395835-3.22395843-2.14062506-1.0104167-4.42187513-1.85937506-6.8125002-1.94270839-.73958336-.02604167-1.09375003,1.1197917-.39062501,1.45833338,1.80729172,.87500003,3.16666676,2.40104174,4.56250014,3.81250011,1.57291671,1.53645838,3.25520843,2.94270842,5.04687515,4.21354179,3.83854178,2.78645842,7.9166669,5.16666682,12.2239587,7.13541688,2.42187507,1.1354167,4.88541681,2.1614584,7.36979189,3.13020843,.20833334,.05729167,.40104168,.03125,.58854168-.078125,.18750001-.10416667,.30729168-.26041667,.36979168-.46875001,.05208333-.20833334,.02083333-.40625001-.08333334-.59375002-.10416667-.18229167-.26041667-.30729168-.46354168-.36979168v.015625Z"/>
  <g class="cls-10">
    <path class="cls-13" d="M158.05677758,154.59052992c3.2968751-1.2291667,5.80208351-4.03645845,7.83333357-6.82291687,2.17187506-2.97916676,3.95833345-6.21875019,6.08333351-9.22395861,2.76562508-3.88020845,5.78125017-7.55729189,9.0364586-11.03125033,1.64062505-1.75520839,3.33333343-3.4687501,5.07291682-5.12500015,1.55208338-1.47916671,3.12500009-2.95833342,4.78645848-4.31250013,2.62500008-2.10937506,5.44791683-3.91145845,8.45833359-5.40625016,3.30729177-1.69270838,6.76041687-2.96875009,10.36979198-3.83854178,3.4531251-.80208336,7.03125021-1.14583337,10.55208365-.62500002,3.38020843,.43229168,6.33854186,1.80208339,8.87500026,4.09375012,1.43750004,1.34375004,2.83333342,2.73958341,4.15104179,4.19270846,1.39583337,1.54166671,2.75520842,3.19791676,3.70312511,5.05729182,.85937503,1.68229172,1.20833337,3.53125011,1.37500004,5.40104183,.18750001,2.05208339,.11979167,4.09895846-.20833334,6.13020852-.125,.85937503-.33854168,1.69270838-.63541669,2.50520841-.10416667,.32291668-.31770834,.50520835-.65104169,.54687502-.33333334,.046875-.58854168-.07291667-.77083336-.35937501-1.52083338-2.46354174-1.61458338-5.52604183-3.2031251-7.9479169-.42187501-.59895835-.88020836-1.1666667-1.36979171-1.70833338-.43750001-.52083335-.86979169-1.03645836-1.31770837-1.53645838-.84895836-.98958336-1.79687505-1.87500006-2.83854175-2.65104175-1.27083337-.90104169-2.69270841-1.52604171-4.10416679-2.16666673-1.50520838-.68750002-3.03125009-1.32812504-4.5729168-1.91666672-3.15104176-1.23437504-6.38541686-2.14062506-9.71354196-2.71875008-1.71354172-.28125001-3.44270844-.44791668-5.17708349-.51041668-1.76041672-.09895834-3.49479177,.078125-5.20312516,.53125002-.9635417,.28125001-1.36979171-1.2291667-.41145835-1.50520838,3.10416676-.91145836,6.46354186-.64583335,9.62500029-.24479167,3.45833344,.46354168,6.8281252,1.29687504,10.1093753,2.50000007,1.64062505,.58854168,3.2500001,1.25000004,4.84375014,1.94270839,1.54166671,.60937502,3.03645842,1.31770837,4.48958347,2.12500006,2.45833341,1.47395838,4.23437513,3.67187511,6.05729185,5.83854184,.58854168,.66666669,1.08333337,1.39583337,1.49479171,2.18750007,.36458334,.77083336,.66666669,1.56770838,.91145836,2.38541674,.47916668,1.58333338,.85416669,3.18750009,1.72395838,4.59895847l-1.41666671,.18750001c.59895835-1.72395838,.89583336-3.5000001,.89062503-5.33333349,.07291667-1.89583339-.11458334-3.76041678-.55729168-5.60416683-.46354168-1.76041672-1.45833338-3.32291677-2.57812508-4.75000014-1.30729171-1.61979171-2.71354175-3.15104176-4.21875013-4.5885418-1.18750004-1.17708337-2.3333334-2.3020834-3.75520845-3.15625009-1.34375004-.79687502-2.77604175-1.37500004-4.29687513-1.72395838-3.18750009-.75000002-6.5937502-.60416668-9.82812529,0-3.51041677,.68229169-6.89062521,1.78645839-10.13020864,3.31770843-3.07812509,1.40625004-5.97395851,3.12500009-8.69270859,5.15625015-1.39062504,1.04687503-2.79166675,2.3333334-4.13020846,3.56250011-1.73437505,1.59895838-3.4218751,3.24479176-5.06770848,4.93750015-3.27083343,3.36979177-6.32291686,6.93750021-9.14062527,10.70312532-2.23437507,2.98958342-4.09375012,6.21875019-6.18750018,9.30208361-2.04687506,3.02604176-4.38020846,6.05208351-7.52604189,7.9791669-.74479169,.45312501-1.52083338,.83333336-2.33854174,1.1354167-.20833334,.05208333-.40104168,.02604167-.58854168-.078125s-.30729168-.26041667-.36458334-.46875001c-.05208333-.20833334-.02604167-.40625001,.078125-.58854168,.10416667-.18750001,.26041667-.31250001,.46354168-.37500001h.01041667Z"/>
  </g>
  <g class="cls-6">
    <path class="cls-13" d="M176.44219479,133.89261263c1.59375005-1.56250005,2.67708341-4.28645846,3.80208345-6.25520852,1.49479171-2.59895841,3.03125009-5.10416682,4.73437514-7.59375023,3.38541677-4.96875015,6.77083354-10.94791699,12.3177087-13.76562541,2.26562507-1.14583337,5.15625015-2.42187507,7.7604169-1.80729172-3.45833344-1.1822917-6.38541686-2.88020842-10.22395864-2.17187506-3.27083343,.60416668-6.92708354,1.72916672-9.66145862,3.72916678-5.6614585,4.15625012-10.24479197,11.44270867-10.29166697,18.69791722,0,2.05729173,2.48437507,7.65625023,1.19270837,9.19791694"/>
  </g>
  <path class="cls-13" d="M169.68698626,142.68427956c4.3697918-1.67187505,8.59895859-3.64583344,12.69270871-5.90625018,2.05729173-1.15625003,4.04166679-2.41666674,5.95833351-3.79166678,1.79166672-1.2447917,3.47395844-2.61979174,5.04687515-4.13541679,1.57291671-1.56250005,3.10416676-3.33333343,5.13541682-4.31250013l.39062501,1.45312504c-1.93229172,.06770834-3.82812511,.72916669-5.58854183,1.52083338-1.93750006,.91145836-3.80729178,1.93750006-5.6145835,3.08854176-3.79166678,2.3333334-7.61979189,4.66145847-11.10937533,7.44270856-2.10937506,1.66666672-4.04687512,3.51041677-5.81250017,5.5364585-.15625,.15104167-.33854168,.22395834-.54687502,.21875001-.21354167,0-.39583335-.078125-.54166668-.22916667-.15104167-.15104167-.22395834-.33333334-.22916667-.54687502,0-.21354167,.07291667-.39583335,.21875001-.54687502,3.19270843-3.70312511,7.08854188-6.70833353,11.151042-9.38541695,1.81770839-1.1979167,3.67187511-2.34375007,5.5208335-3.49479177,1.85416672-1.18750004,3.76562511-2.26041673,5.7395835-3.22395843,2.14062506-1.0104167,4.42708347-1.85937506,6.8125002-1.94270839,.74479169-.02604167,1.09375003,1.1197917,.39062501,1.45833338-1.80729172,.87500003-3.16666676,2.40104174-4.5572918,3.81250011-1.57812505,1.53645838-3.26041676,2.94270842-5.04687515,4.21354179-3.84375011,2.78645842-7.9166669,5.16666682-12.22916703,7.13541688-2.41666674,1.1354167-4.88541681,2.1614584-7.36979189,3.13020843-.20312501,.05729167-.40104168,.03125-.58854168-.078125-.18229167-.10416667-.30729168-.26041667-.36458334-.46875001-.05208333-.20833334-.02604167-.40625001,.078125-.59375002,.10416667-.18229167,.26041667-.30729168,.46354168-.36979168v.015625Z"/>
  <g class="cls-12">
    <path class="cls-13" d="M151.0151107,143.23636291l.96875003-1.61458338,2.61979174-4.37500013,3.86979178-6.46875019,4.75520848-7.92187524,5.20312516-8.68229193,5.22395849-8.72916693,4.86458348-8.13541691,4.13541679-6.89062521,2.95833342-4.94791681c.46875001-.79687502,.9635417-1.55729171,1.41145838-2.3489584,.015625-.03645833,.03645833-.06770834,.05729167-.10416667,.08854167-.15625,.11458334-.32291668,.06770834-.50000001s-.14583334-.31250001-.30208334-.40625001l-3.73958344-2.3020834-8.8958336-5.4895835-10.79166699-6.6562502-9.32291694-5.76562517c-1.50520838-.92187503-2.98437509-1.92187506-4.52083347-2.78645842-.02604167-.01041667-.046875-.02604167-.06770834-.04166667-.22395834-.125-.44270835-.125-.66666669,0l-3.73958344,2.29687507-8.8958336,5.50000016-10.79166699,6.6562502-9.32812528,5.75000017c-1.50520838,.92187503-3.04166676,1.81770839-4.52083347,2.78645842l-.0625,.04166667c-.15625,.09375-.25520834,.22916667-.30208334,.40625001s-.02604167,.34375001,.0625,.50000001l.98958336,1.65104172,2.68750008,4.48437513,3.95833345,6.60416686,4.84375014,8.08854191,5.30729182,8.85937526,5.33854183,8.90625027,4.99479182,8.34375025,4.22395846,7.04687521,3.02604176,5.03645848c.47916668,.79687502,.94270836,1.61458338,1.44270838,2.40625007l.0625,.10416667c.09375,.15625,.22916667,.26041667,.40104168,.30729168,.17708334,.046875,.34375001,.02083333,.50000001-.06770834l1.75000005-1.32812504c.15104167-.09375,.25000001-.22916667,.29687501-.40625001,.046875-.17187501,.02604167-.33854168-.05729167-.50000001-.09375-.15625-.22916667-.25520834-.40625001-.30208334s-.34375001-.02604167-.50000001,.06770834c-.58333335,.43229168-1.1666667,.87500003-1.74479172,1.32291671l.90104169,.23958334-1.00000003-1.63541672-2.68750008-4.48437513-3.96354178-6.60416686-4.83333348-8.08854191-5.31250016-8.85937526-5.33333349-8.9114586-4.99479182-8.33854192-4.22395846-7.04687521-3.02083342-5.05208348c-.47916668-.79687502-.91145836-1.64062505-1.44270838-2.40625007-.02083333-.03125-.04166667-.06770834-.0625-.10416667l-.23437501,.90625003,3.73437511-2.3020834,8.90104193-5.4895835,10.79166699-6.66145853,9.32291694-5.7552085,3.06250009-1.88541672c.50520835-.27604167,.98958336-.57812502,1.45833338-.90104169,.02083333-.015625,.046875-.02604167,.06770834-.04166667h-.66666669l3.73958344,2.30729174,8.90104193,5.48437516,10.78645865,6.66145853,9.32812528,5.75000017,3.06250009,1.90104172c.47916668,.29166668,.95312503,.65104169,1.45833338,.89583336,.02083333,.015625,.04166667,.02604167,.0625,.04166667l-.23437501-.90625003-.96875003,1.61458338-2.61979174,4.37500013-3.87500012,6.46875019-4.74479181,7.92708357-5.19791682,8.67708359-5.22916682,8.72916693-4.86458348,8.13020858-4.13541679,6.89583354-2.96875009,4.94791681c-.46875001,.79687502-.95833336,1.55729171-1.40625004,2.3489584-.02083333,.03645833-.04166667,.06770834-.0625,.10416667-.43750001,.72916669,.70312502,1.40625004,1.14062503,.67187502Z"/>
  </g>
  <g class="cls-3">
    <path class="cls-13" d="M111.66094286,83.31448613l3.71875011,1.0260417,8.96354193,2.47916674,10.79687532,2.98437509,9.31250028,2.58333341c1.49479171,.41666668,2.98437509,.89062503,4.48958347,1.2447917,.33854168,.03645833,.66145835-.01041667,.9791667-.140625l2.32812507-.64583335,8.44791692-2.34375007,10.75000032-2.96875009,9.71354196-2.68750008,5.28125016-1.47395838,.24479167-.06770834c.81770836-.22395834,.47395835-1.50520838-.34895834-1.2760417l-3.72395844,1.0260417-8.9270836,2.46875007-10.79166699,2.99479176-9.30208361,2.57291674-3.06770842,.84895836c-.47916668,.13020834-.98958336,.22916667-1.45312504,.40104168l-.06770834,.02083333h.35416668l-3.72395844-1.03125003-8.93229193-2.46875007-10.79687532-2.98437509-9.29687528-2.57291674c-1.51041671-.41666668-3.01041676-.88541669-4.53125014-1.25520837h-.06770834c-.81770836-.22395834-1.1666667,1.06250003-.34895834,1.2760417v-.01041667Z"/>
  </g>
  <g class="cls-4">
    <path class="cls-13" d="M150.31719401,143.65302959l1.1666667-3.57812511,2.97395842-9.0989586,3.93750012-12.06250036,4.15104179-12.72395871,3.54166677-10.84375032,2.10937506-6.46875019c.13020834-.40104168,.43750001-.97395836,.21875001-1.38020837-.26562501-.48437501-.61979169-.93750003-.92187503-1.39583337l-5.70312517-8.60937526-7.22916688-10.91145866-4.5885418-6.93229187-.22395834-.33854168c-.0625-.09895834-.14583334-.17708334-.24479167-.23437501-.10416667-.05729167-.21354167-.08333334-.32812501-.08333334s-.22395834,.02604167-.32812501,.08333334c-.09895834,.05729167-.18229167,.13541667-.23958334,.23437501l-3.19791676,5.06770848-6.7656252,10.73437532-6.19270852,9.80729196-1.58333338,2.49479174c-.16145834,.26562501-.32812501,.46354168-.26041667,.79687502,.015625,.08854167,.05208333,.17708334,.078125,.26562501l1.66145838,5.23958349,3.18750009,10.13020864,3.92187512,12.48437537,3.93750012,12.53125037,3.17187509,10.0156253,1.61458338,5.15104182,.078125,.22395834c.109375,.36979168,.60937502,.67187502,.96875003,.40104168l.79166669-.60416668c.15104167-.09375,.25000001-.22916667,.29687501-.40625001,.046875-.17187501,.02604167-.33854168-.0625-.50000001-.09375-.15625-.22916667-.26041667-.40104168-.30208334-.17708334-.046875-.34375001-.02604167-.50000001,.0625l-.79687502,.60416668,.97395836,.39583335-.47395835-1.50000004-1.28645837-4.08333346-1.88541672-6.00000018-2.31250007-7.35937522-2.55208341-8.06770857-2.56250008-8.14062524-2.37500007-7.59375023-2.01562506-6.38541686-1.45312504-4.61458347c-.22395834-.72395835-.40625001-1.48958338-.68750002-2.1927084,0-.03125-.015625-.06770834-.03125-.09895834l-.0625,.51562502,1.79166672-2.83854175,4.27604179-6.77083354,5.16145849-8.19270858,4.48958347-7.10937521,1.46875004-2.32291674c.25000001-.35937501,.47916668-.72395835,.69791669-1.1041667,.00520833-.02083333,.015625-.03645833,.03125-.05208333h-1.14062503l1.84895839,2.80208342,4.45312513,6.7343752,5.39583349,8.14062524,4.67187514,7.03125021,1.53125005,2.31250007c.22395834,.38541668,.46875001,.75520836,.73437502,1.10937503,.01041667,.015625,.02604167,.03125,.03125,.046875l-.06770834-.50520835-.47916668,1.47916671-1.32291671,4.04166679-1.96354173,6.00520851-2.37500007,7.29687522-2.61979174,7.9947919-2.64062508,8.06770857-2.46354174,7.55729189-2.07812506,6.36458352-1.49479171,4.56770847c-.23437501,.72395835-.50000001,1.44270838-.70833335,2.17187506,0,.03645833-.02083333,.06770834-.03125,.09895834-.25000001,.80208336,1.02083336,1.15625003,1.28645837,.34375001Z"/>
  </g>
  <g class="cls-11">
    <path class="cls-13" d="M114.80156796,41.26760987c-.53125002,3.08854176-1.34375004,6.46875019-3.38541677,8.9583336-.56250002,.70312502-1.21875004,1.29166671-1.97395839,1.78125005-.16666667,.09895834-.27604167,.23958334-.32291668,.42708335-.046875,.18229167-.02604167,.35937501,.07291667,.52604168,1.1822917,1.65104172,2.24479173,3.38020843,3.18229176,5.18229182,.87500003,1.70833338,1.71875005,3.59895844,1.91666672,5.51562516,0,.17187501,.05729167,.32291668,.17708334,.45312501,.11458334,.13020834,.25520834,.20833334,.43229168,.23437501,.17187501,.02083333,.33333334-.01041667,.47916668-.109375,.15104167-.09375,.24479167-.22395834,.29687501-.39062501,.41145835-2.0989584,1.07812503-4.11458346,1.98958339-6.05208351,.95833336-1.95312506,2.25000007-3.64583344,3.88541678-5.08854182,.078125-.078125,.13541667-.16666667,.16666667-.27083334,.03645833-.10416667,.046875-.20833334,.03645833-.31250001-.015625-.109375-.05208333-.20833334-.11458334-.29687501-.05729167-.09375-.13541667-.16666667-.22916667-.21875001-1.48958338-.65104169-2.86458342-1.60416671-3.76562511-2.93750009-.83854169-1.29687504-1.31770837-2.70833341-1.44270838-4.23958346-.09375-.98958336-.09895834-1.98437506-.015625-2.97916676-.00520833-.19270834-.07291667-.35416668-.20833334-.48958335-.140625-.13541667-.30729168-.20833334-.50000001-.20833334-.19270834,.00520833-.35937501,.07291667-.49479168,.20833334s-.20833334,.29687501-.20833334,.48958335c-.25000001,3.49479177,.39062501,7.23958355,3.17708343,9.65625029,.82812502,.70833335,1.73958339,1.2760417,2.74479175,1.70833338l-.140625-1.09895837c-1.72395838,1.52083338-3.09375009,3.30729177-4.10937512,5.35937516-.97395836,2.04687506-1.68750005,4.18229179-2.1302084,6.40104186l1.38020837,.18750001c-.20833334-2.12500006-1.05208336-4.13541679-2.01041673-6.02604185-.9635417-1.87500006-2.05729173-3.66666678-3.29166676-5.38020849l-.25000001,.95312503c3.06770842-1.91145839,4.57812514-5.45312516,5.43229183-8.8020836,.23437501-.91666669,.42187501-1.84375005,.58333335-2.77083342,.046875-.18750001,.02083333-.36458334-.07291667-.53125002-.09895834-.16145834-.23958334-.27604167-.42187501-.32812501-.18750001-.05208333-.36458334-.02604167-.53645835,.06770834-.16666667,.09375-.27604167,.23437501-.32812501,.42187501Z"/>
  </g>
  <g class="cls-7">
    <path class="cls-13" d="M106.12448436,57.07490201c-.36458334,2.1145834-.98958336,4.77083348-2.95833342,6.02604185-.16666667,.09895834-.27083334,.23958334-.32291668,.42708335-.046875,.18229167-.02604167,.35937501,.07291667,.52604168,.67187502,.93750003,1.2760417,1.91666672,1.81250005,2.93750009,.49479168,.94270836,.9791667,2.01041673,1.0885417,3.07291676,.00520833,.17187501,.0625,.32291668,.17708334,.45312501s.26041667,.20312501,.43229168,.22916667c.17708334,.02604167,.33854168-.01041667,.48437501-.10416667,.14583334-.09895834,.24479167-.22916667,.29166668-.39583335,.52604168-2.3958334,1.43229171-4.63020847,3.3125001-6.29166685,.078125-.078125,.13020834-.16666667,.16666667-.27083334,.03645833-.09895834,.046875-.20312501,.03125-.31250001s-.05208333-.20312501-.109375-.29687501c-.0625-.08854167-.140625-.16145834-.23437501-.21875001-1.1041667-.42708335-1.91666672-1.17187503-2.43229174-2.23437507-.46354168-1.0104167-.50520835-2.21875007-.42708335-3.34895843,0-.19270834-.06770834-.35937501-.20833334-.49479168-.13541667-.13541667-.30208334-.20833334-.50000001-.20833334-.19270834,0-.35937501,.07291667-.49479168,.20833334-.140625,.13541667-.20833334,.30208334-.20833334,.49479168-.14583334,1.40104171,.0625,2.75000008,.61979169,4.04687512,.63541669,1.28645837,1.61458338,2.20312507,2.94270842,2.75520842l-.14583334-1.09895837c-2.04687506,1.80729172-3.09895843,4.29687513-3.66666678,6.90625021l1.38541671,.18750001c-.17187501-1.26562504-.56250002-2.45833341-1.17708337-3.57812511-.55729168-1.09375003-1.1979167-2.1458334-1.91666672-3.14583343l-.25520834,.95833336c2.31250007-1.46875004,3.15625009-4.32812513,3.59895844-6.8593752,.046875-.18229167,.02083333-.35937501-.07291667-.52604168s-.23437501-.27604167-.42187501-.32812501-.36458334-.03125-.53125002,.06770834c-.17187501,.09375-.28125001,.23437501-.33333334,.41666668Z"/>
  </g>
  <g class="cls-14">
    <path class="cls-13" d="M197.07761207,64.48115223c.53125002,3.09375009,1.34375004,6.46875019,3.38541677,8.96354193,.55729168,.69791669,1.2135417,1.29166671,1.97395839,1.77604172,.16666667,.09895834,.27083334,.23958334,.32291668,.42708335,.046875,.18229167,.02083333,.35937501-.07291667,.52604168-1.18750004,1.65625005-2.25000007,3.38020843-3.18750009,5.18229182-.86979169,1.70833338-1.71875005,3.59895844-1.91145839,5.5208335-.00520833,.17187501-.0625,.32291668-.17708334,.45312501s-.26041667,.20312501-.43229168,.22916667c-.17708334,.02604167-.33333334-.01041667-.48437501-.10416667-.14583334-.09895834-.24479167-.22916667-.29166668-.39583335-.41666668-2.0989584-1.07812503-4.11458346-1.99479173-6.05208351-.95312503-1.94791672-2.25000007-3.64583344-3.88541678-5.08854182-.07291667-.078125-.13020834-.16666667-.16666667-.27083334-.03645833-.09895834-.046875-.20312501-.03125-.31250001s.05208333-.20833334,.109375-.29687501c.0625-.08854167,.13541667-.16145834,.22916667-.21875001,1.49479171-.64583335,2.86979175-1.60416671,3.76562511-2.93750009,.83854169-1.29166671,1.32291671-2.70312508,1.44791671-4.23437513,.08854167-.9947917,.09375-1.98958339,.015625-2.98437509,0-.18750001,.07291667-.35416668,.20833334-.48958335s.30208334-.20312501,.49479168-.20833334c.19270834,.00520833,.35937501,.07291667,.49479168,.20833334,.140625,.13541667,.20833334,.30208334,.21354167,.48958335,.25000001,3.49479177-.39583335,7.24479188-3.18229176,9.65625029-.82291669,.70833335-1.73958339,1.2760417-2.74479175,1.70833338l.14583334-1.09895837c1.71875005,1.52083338,3.08854176,3.30729177,4.10416679,5.35937516,.9791667,2.04687506,1.68750005,4.18229179,2.13541673,6.40104186l-1.38541671,.18750001c.21354167-2.12500006,1.05208336-4.13541679,2.01041673-6.02604185,.9635417-1.87500006,2.06250006-3.66666678,3.29166676-5.38020849l.25000001,.95833336c-3.06250009-1.91666672-4.57812514-5.4583335-5.43229183-8.80729193-.23437501-.91666669-.42187501-1.84375005-.57812502-2.77083342-.046875-.18750001-.02083333-.35937501,.07291667-.52604168s.23437501-.27604167,.42187501-.33333334c.18750001-.046875,.36458334-.02604167,.53125002,.06770834,.16666667,.09895834,.28125001,.23958334,.33333334,.42187501Z"/>
  </g>
  <g class="cls-1">
    <path class="cls-13" d="M205.75469567,80.28844437c.36458334,2.1145834,.98437503,4.77083348,2.95312509,6.02604185,.16666667,.09895834,.27604167,.23958334,.32291668,.42708335,.05208333,.18750001,.02604167,.36458334-.06770834,.53125002-.67708335,.93229169-1.28125004,1.91145839-1.81770839,2.93229175-.49479168,.94791669-.9791667,2.01562506-1.08333337,3.07291676-.00520833,.17187501-.0625,.32291668-.18229167,.45312501-.11458334,.13020834-.26041667,.20833334-.43229168,.22916667-.17187501,.02604167-.33333334-.01041667-.48437501-.10416667-.14583334-.09375-.24479167-.22916667-.29166668-.39583335-.52083335-2.3958334-1.42708338-4.63020847-3.3125001-6.29166685-.07291667-.07291667-.13020834-.16666667-.16666667-.26562501-.03125-.10416667-.04166667-.20833334-.03125-.31770834,.015625-.10416667,.05208333-.20312501,.11458334-.29687501,.05729167-.08854167,.13541667-.16145834,.22916667-.21354167,1.1041667-.43229168,1.91666672-1.17708337,2.43750007-2.2395834,.45833335-1.0104167,.50520835-2.21354173,.42708335-3.34895843,0-.19270834,.06770834-.35937501,.20312501-.49479168,.140625-.13541667,.30729168-.20312501,.50000001-.20312501s.35937501,.06770834,.50000001,.20312501c.13541667,.13541667,.20312501,.30208334,.20312501,.49479168,.14583334,1.40104171-.05729167,2.75000008-.61979169,4.05208345-.63020835,1.28125004-1.60937505,2.19791673-2.94270842,2.75000008l.14583334-1.09895837c2.04687506,1.81250005,3.10416676,4.30208346,3.66666678,6.91145854l-1.38541671,.18229167c.17187501-1.2604167,.56250002-2.45312507,1.17708337-3.57812511,.56250002-1.09375003,1.1979167-2.14062506,1.91666672-3.14583343l.25520834,.95833336c-2.31250007-1.46875004-3.15625009-4.3229168-3.59375011-6.85416687-.046875-.18750001-.02604167-.36458334,.07291667-.52604168,.09375-.16666667,.23437501-.28125001,.41666668-.33333334,.18750001-.05208333,.36458334-.02604167,.53645835,.06770834,.16666667,.09375,.27604167,.23437501,.33333334,.41666668Z"/>
  </g>
  <path class="cls-13" d="M10.47916698,206.26602788c-2.18229237,0-4.06250012-.38541735-5.6458335-1.1666667-1.57291735-.77604137-2.77083342-1.85937474-3.60416677-3.2500001-.82291606-1.40104107-1.2291667-3.03124945-1.2291667-4.89583348,0-2.4687488,.56250002-4.72916681,1.68750005-6.77083354,1.12500003-2.05208467,2.71875072-3.67708471,4.79166681-4.87500015,2.06770776-1.20833337,4.45833347-1.81250005,7.16666688-1.81250005,1.79166672,0,3.3750001,.28645834,4.75000014,.85416669,1.38541671,.55729168,2.45833341,1.35416671,3.20833343,2.3958334l-1.66666672,1.47916671c-1.43229171-1.75000005-3.59895844-2.62500008-6.50000019-2.62500008-2.19791546,0-4.13541806,.51041795-5.81250017,1.52083338-1.68229235,1.01562503-2.98958406,2.37500007-3.91666678,4.08333346-.91666669,1.70833338-1.37500004,3.58333344-1.37500004,5.62500017,0,2.23958404,.71874939,4.02083345,2.16666673,5.35416683,1.44270774,1.32291607,3.5000001,1.97916673,6.16666685,1.97916673,2.91666675,0,5.28125143-.88541606,7.10416688-2.66666675l1.37500004,1.58333338c-.98958209,1.01562535-2.23958213,1.80208275-3.75000011,2.35416674-1.51562505,.55729175-3.15624882,.83333336-4.91666681,.83333336Z"/>
  <path class="cls-13" d="M29.48720384,206.26602788c-1.65624941,0-3.22916676-.26041667-4.72916681-.79166669-1.50000004-.54166668-2.6406254-1.21875067-3.41666677-2.04166673l1.1666667-1.87500006c.7343747,.82291606,1.76041608,1.4739587,3.08333343,1.95833339,1.33333337,.48958271,2.69791738,.72916669,4.10416679,.72916669,1.98437506,0,3.58333344-.38541604,4.79166681-1.1666667,1.20833337-.77604137,1.81250005-1.85937474,1.81250005-3.2500001,0-.73437439-.22916667-1.33854107-.68750002-1.81250005-.44791541-.46875065-1.01041797-.84375066-1.68750005-1.12500003-.68229169-.29166668-1.61458465-.60937438-2.79166675-.95833336-1.37500004-.40104104-2.50000007-.79166669-3.3750001-1.1666667-.86458399-.37500001-1.5989587-.92708463-2.2083334-1.66666672-.59895867-.73437502-.89583336-1.68750005-.89583336-2.85416675,0-1.38541544,.37500001-2.58854174,1.12500003-3.60416677,.76041733-1.01041797,1.81770775-1.79166672,3.16666676-2.3333334,1.3593744-.54166668,2.91666675-.81250002,4.66666681-.81250002,1.33333337,0,2.60937508,.16666667,3.83333345,.50000001,1.21875131,.32291668,2.2552084,.79166669,3.10416676,1.41666671l-1.00000003,1.91666672c-.80729169-.59374875-1.72916672-1.04687503-2.77083342-1.35416671-1.0416667-.31770834-2.14062506-.47916668-3.29166676-.47916668-1.97395903,0-3.55729241,.41145835-4.75000014,1.2291667-1.19791607,.80729169-1.79166672,1.90624879-1.79166672,3.29166676,0,.76562502,.23437437,1.39583337,.70833335,1.89583339,.46875065,.48958462,1.052084,.87500003,1.75000005,1.1666667,.69270772,.28125128,1.62500005,.59374875,2.79166675,.93750003,1.38541798,.40624874,2.50520841,.79166669,3.35416677,1.1666667,.85937503,.37500001,1.58854171,.911459,2.18750007,1.60416671,.59375129,.69791732,.89583336,1.60416671,.89583336,2.72916675,0,1.40624941-.39062501,2.61458278-1.1666667,3.62500011-.78125129,1.01562535-1.85416672,1.79166672-3.22916676,2.3333334-1.37500004,.53125002-2.95833342,.79166669-4.75000014,.79166669Z"/>
  <path class="cls-13" d="M53.06307124,206.26602788c-2.18229237,0-4.05208282-.38541735-5.60416683-1.1666667-1.55729203-.77604137-2.74479207-1.85937474-3.56250011-3.2500001-.80729201-1.40104107-1.20833337-3.03124945-1.20833337-4.89583348,0-2.44270841,.55208271-4.69270847,1.66666672-6.7500002,1.10937472-2.06770839,2.68750008-3.69791805,4.72916681-4.89583348,2.05208403-1.20833337,4.42187513-1.81250005,7.10416688-1.81250005,2.17708213,0,4.04687512,.39062501,5.60416683,1.1666667,1.55208338,.78125129,2.73958341,1.86979172,3.56250011,3.27083343,.83333336,1.39062504,1.25000004,3.01562509,1.25000004,4.87500015,0,2.44791547-.56250002,4.70312578-1.68750005,6.77083354-1.12500003,2.05729205-2.70833341,3.68750011-4.75000014,4.89583348-2.04166673,1.19791603-4.41145846,1.79166672-7.10416688,1.79166672Zm.22916667-2.10416673c2.15104173,0,4.05208473-.50520803,5.7083335-1.52083338,1.66666672-1.01041733,2.94791548-2.37500007,3.85416678-4.08333346,.91666669-1.71875069,1.37500004-3.60937511,1.37500004-5.66666684,0-2.21875134-.71875002-3.98958218-2.1458334-5.31250016-1.43229171-1.31770837-3.46875137-1.97916673-6.10416685-1.97916673-2.15625134,0-4.06250012,.51041795-5.72916684,1.52083338-1.66666672,1.01562503-2.95833342,2.38541547-3.87500012,4.10416679-.90624939,1.70833338-1.35416671,3.57812511-1.35416671,5.60416683,0,2.23958404,.71354137,4.02083345,2.1458334,5.35416683,1.42708401,1.32291607,3.46875074,1.97916673,6.12500018,1.97916673Z"/>
  <path class="cls-13" d="M73.95279151,183.68269387h8.52083359c2.21875134,0,4.12500012,.37500001,5.7083335,1.12500003,1.58333338,.73958208,2.78125008,1.79166672,3.60416677,3.16666676,.83333336,1.37500004,1.25000004,2.98958215,1.25000004,4.83333348,0,2.59895841-.57812502,4.90624951-1.72916672,6.91666687-1.15625003,2.00000006-2.78645842,3.56250011-4.89583348,4.68750014-2.0989584,1.11458404-4.53125141,1.66666672-7.29166688,1.66666672h-9.64583362l4.4791668-22.395834Zm5.22916682,20.35416727c2.3177084,0,4.3437514-.46874938,6.08333351-1.41666671,1.73437505-.95833336,3.06770842-2.2760411,4.00000012-3.95833345,.92708336-1.69270775,1.39583337-3.61458471,1.39583337-5.77083351,0-2.21875134-.71875002-3.96875139-2.1458334-5.25000016-1.43229171-1.2760417-3.53124883-1.91666672-6.29166685-1.91666672h-6.35416686l-3.64583344,18.31250055h6.95833354Z"/>
  <path class="cls-13" d="M111.28067348,200.09936103h-12.52083371l-3.87500012,5.97916684h-2.56250008l14.72916711-22.395834h2.3333334l5.75000017,22.395834h-2.35416674l-1.50000004-5.97916684Zm-.45833335-1.91666672l-3.04166676-12.10416703-7.81250023,12.10416703h10.85416699Z"/>
  <path class="cls-13" d="M134.22472527,200.09936103h-12.52083371l-3.87500012,5.97916684h-2.56250008l14.72916711-22.395834h2.3333334l5.75000017,22.395834h-2.35416674l-1.50000004-5.97916684Zm-.45833335-1.91666672l-3.04166676-12.10416703-7.81250023,12.10416703h10.85416699Zm.43750001-20.29166727h3.10416676l-5.60416683,3.95833345h-2.35416674l4.85416681-3.95833345Z"/>
  <path class="cls-13" d="M148.33544347,206.26602788c-1.65624941,0-3.22916676-.26041667-4.72916681-.79166669-1.50000004-.54166668-2.6406254-1.21875067-3.41666677-2.04166673l1.1666667-1.87500006c.7343747,.82291606,1.76041608,1.4739587,3.08333343,1.95833339,1.33333337,.48958271,2.69791738,.72916669,4.10416679,.72916669,1.98437506,0,3.58333344-.38541604,4.79166681-1.1666667,1.20833337-.77604137,1.81250005-1.85937474,1.81250005-3.2500001,0-.73437439-.22916667-1.33854107-.68750002-1.81250005-.44791541-.46875065-1.01041797-.84375066-1.68750005-1.12500003-.68229169-.29166668-1.61458465-.60937438-2.79166675-.95833336-1.37500004-.40104104-2.50000007-.79166669-3.3750001-1.1666667-.86458399-.37500001-1.5989587-.92708463-2.2083334-1.66666672-.59895867-.73437502-.89583336-1.68750005-.89583336-2.85416675,0-1.38541544,.37500001-2.58854174,1.12500003-3.60416677,.76041733-1.01041797,1.81770775-1.79166672,3.16666676-2.3333334,1.3593744-.54166668,2.91666675-.81250002,4.66666681-.81250002,1.33333337,0,2.60937508,.16666667,3.83333345,.50000001,1.21875131,.32291668,2.2552084,.79166669,3.10416676,1.41666671l-1.00000003,1.91666672c-.80729169-.59374875-1.72916672-1.04687503-2.77083342-1.35416671-1.0416667-.31770834-2.14062506-.47916668-3.29166676-.47916668-1.97395903,0-3.55729241,.41145835-4.75000014,1.2291667-1.19791607,.80729169-1.79166672,1.90624879-1.79166672,3.29166676,0,.76562502,.23437437,1.39583337,.70833335,1.89583339,.46875065,.48958462,1.052084,.87500003,1.75000005,1.1666667,.69270772,.28125128,1.62500005,.59374875,2.79166675,.93750003,1.38541798,.40624874,2.50520841,.79166669,3.35416677,1.1666667,.85937503,.37500001,1.58854171,.911459,2.18750007,1.60416671,.59375129,.69791732,.89583336,1.60416671,.89583336,2.72916675,0,1.40624941-.39062501,2.61458278-1.1666667,3.62500011-.78125129,1.01562535-1.85416672,1.79166672-3.22916676,2.3333334-1.37500004,.53125002-2.95833342,.79166669-4.75000014,.79166669Z"/>
  <path class="cls-13" d="M184.55714458,183.68269387l-14.4166671,22.395834h-2.29166673l-5.47916683-22.395834h2.43750007l4.70833347,19.41666725,12.54166704-19.41666725h2.50000007Z"/>
  <path class="cls-13" d="M199.18485091,200.09936103h-12.52083371l-3.87500012,5.97916684h-2.56250008l14.72916711-22.395834h2.3333334l5.75000017,22.395834h-2.35416674l-1.50000004-5.97916684Zm-.45833335-1.91666672l-3.04166676-12.10416703-7.81250023,12.10416703h10.85416699Zm.43750001-20.29166727h3.10416676l-5.60416683,3.95833345h-2.35416674l4.85416681-3.95833345Z"/>
  <path class="cls-13" d="M229.9205696,183.68269387l-4.4791668,22.395834h-1.91666672l-10.70833365-18.56250055-3.72916678,18.56250055h-2.3333334l4.4791668-22.395834h1.91666672l10.72916699,18.56250055,3.70833344-18.56250055h2.3333334Z"/>
  <path class="cls-13" d="M241.9366222,198.53686098l-1.52083338,7.54166689h-2.3333334l1.54166671-7.70833356-6.02083351-14.68750044h2.37500007l5.18750015,12.60416704,10.16666697-12.60416704h2.52083341l-11.91666702,14.85416711Z"/>
  <path class="cls-13" d="M263.52748385,206.26602788c-2.18229237,0-4.05208282-.38541735-5.60416683-1.1666667-1.55729203-.77604137-2.74479207-1.85937474-3.56250011-3.2500001-.80729201-1.40104107-1.20833337-3.03124945-1.20833337-4.89583348,0-2.44270841,.55208271-4.69270847,1.66666672-6.7500002,1.10937472-2.06770839,2.68750008-3.69791805,4.72916681-4.89583348,2.05208403-1.20833337,4.42187513-1.81250005,7.10416688-1.81250005,2.17708213,0,4.04687512,.39062501,5.60416683,1.1666667,1.55208338,.78125129,2.73958341,1.86979172,3.56250011,3.27083343,.83333336,1.39062504,1.25000004,3.01562509,1.25000004,4.87500015,0,2.44791547-.56250002,4.70312578-1.68750005,6.77083354-1.12500003,2.05729205-2.70833341,3.68750011-4.75000014,4.89583348-2.04166673,1.19791603-4.41145846,1.79166672-7.10416688,1.79166672Zm.22916667-2.10416673c2.15104173,0,4.05208473-.50520803,5.7083335-1.52083338,1.66666672-1.01041733,2.94791548-2.37500007,3.85416678-4.08333346,.91666669-1.71875069,1.37500004-3.60937511,1.37500004-5.66666684,0-2.21875134-.71875002-3.98958218-2.1458334-5.31250016-1.43229171-1.31770837-3.46875137-1.97916673-6.10416685-1.97916673-2.15625134,0-4.06250012,.51041795-5.72916684,1.52083338-1.66666672,1.01562503-2.95833342,2.38541547-3.87500012,4.10416679-.90624939,1.70833338-1.35416671,3.57812511-1.35416671,5.60416683,0,2.23958404,.71354137,4.02083345,2.1458334,5.35416683,1.42708401,1.32291607,3.46875074,1.97916673,6.12500018,1.97916673Z"/>
  <path class="cls-13" d="M298.85471472,206.07852787h-2.64583341l-7.25000022-10.56250031-5.50000016,4.70833347-1.18750004,5.85416684h-2.3333334l4.4791668-22.395834h2.3333334l-2.68750008,13.3750004,15.62500047-13.3750004h3.10416676l-12.10416703,10.39583364,8.16666691,12.00000036Z"/>
  <path class="cls-13" d="M82.90186811,223.17634739h1.31250004v7.00000021l-5.93750018-7.39583355h-2.16666673v.39583335h1.25000004v8.56250026h-1.25000004v.41666668h3.20833343c0-.23437467-.08333334-.36458402-.25000001-.39583335-.05729199-.01041734-.1145827-.02083333-.16666667-.02083333h-.91666669v-7.22916688l6.14583352,7.7291669,.70833335-.16666667v-8.8958336h1.25000004v-.39583335h-3.18750009v.39583335Z"/>
  <path class="cls-13" d="M95.1274951,225.59301413l-.08333334-2.81250008h-7.20833355v.39583335h1.25000004v8.56250026h-1.25000004v.41666668h7.20833355l.08333334-2.81250008h-.31250001l-.22916667,.72916669c-.26562564,.89062534-.64583335,1.4270827-1.14583337,1.60416671-.16666667,.04166667-.33333334,.0625-.50000001,.0625h-2.50000007v-4.18750012h3.20833343v-.45833335h-3.20833343v-3.91666678h2.50000007c.75000002,0,1.2812494,.51041732,1.60416671,1.52083338,.01041603,.0729173,.02604103,.125,.04166667,.16666667l.22916667,.72916669h.31250001Z"/>
  <path class="cls-13" d="M101.31666358,232.15551432c0-.23437467-.08333334-.36458402-.25000001-.39583335-.05729199-.01041734-.11458397-.02083333-.16666667-.02083333h-.81250002v-3.62500011l.81250002-.77083336,3.68750011,4.81250014h2.18750007c0-.23437467-.08333334-.36458402-.25000001-.39583335-.0572923-.01041734-.11458397-.02083333-.16666667-.02083333h-.41666668l-4.08333346-5.31250016,2.79166675-2.58333341c.37500001-.35937437,.66666669-.56770771,.87500003-.62500002,.08333334-.02604103,.1770827-.04166667,.29166668-.04166667,.21874937,0,.35416668-.08333334,.39583335-.25000001v-.14583334h-2.81250008v.39583335h1.25000004l-4.56250014,4.22916679v-4.22916679h1.2291667v-.39583335h-3.83333345v.39583335h1.25000004v8.56250026h-1.25000004v.41666668h3.83333345Z"/>
  <path class="cls-13" d="M115.64124897,225.59301413l-.08333334-2.81250008h-7.20833355v.39583335h1.25000004v8.56250026h-1.25000004v.41666668h7.20833355l.08333334-2.81250008h-.31250001l-.22916667,.72916669c-.26562564,.89062534-.64583335,1.4270827-1.14583337,1.60416671-.16666667,.04166667-.33333334,.0625-.50000001,.0625h-2.50000007v-4.18750012h3.20833343v-.45833335h-3.20833343v-3.91666678h2.50000007c.75000002,0,1.2812494,.51041732,1.60416671,1.52083338,.01041603,.0729173,.02604103,.125,.04166667,.16666667l.22916667,.72916669h.31250001Z"/>
  <path class="cls-13" d="M117.997084,222.78051404v.39583335h1.25000004v8.56250026h-1.25000004v.41666668h4.31250013c1.40104107,0,2.56250008-.43750001,3.47916677-1.31250004,.88541606-.85937471,1.33333337-1.98437474,1.33333337-3.3750001,0-1.79166672-.65625066-3.10416676-1.95833339-3.93750012-.80729233-.50000001-1.74479235-.75000002-2.81250008-.75000002h-4.3541668Zm4.31250013,.39583335c1.65104108,0,2.67708405,.75000002,3.08333343,2.25000007,.15104104,.55729232,.22916667,1.21875067,.22916667,1.97916673,0,2.59895873-.88541606,4.03125076-2.64583341,4.29166679-.20833334,.03125068-.41666668,.04166667-.62500002,.04166667h-1.75000005v-8.56250026h1.70833338Z"/>
  <path class="cls-13" d="M139.55248422,232.15551432c0-.23437467-.08333334-.36458402-.25000001-.39583335-.0572923-.01041734-.1145827-.02083333-.16666667-.02083333h-1.06250003v-8.56250026h.91666669c.83333336,0,1.39583337,.51562565,1.68750005,1.54166671v.08333334l.25000001,1.06250003h.43750001l-.0625-3.08333343h-7.7291669l-.08333334,3.08333343h.43750001l.25000001-1.06250003c.33333334-1.01041733,.90104138-1.55208402,1.70833338-1.62500005h.85416669v8.56250026h-1.50000004v.41666668h4.31250013Z"/>
  <path class="cls-13" d="M150.79373618,225.59301413l-.08333334-2.81250008h-7.20833355v.39583335h1.25000004v8.56250026h-1.25000004v.41666668h7.20833355l.08333334-2.81250008h-.31250001l-.22916667,.72916669c-.26562564,.89062534-.64583335,1.4270827-1.14583337,1.60416671-.16666667,.04166667-.33333334,.0625-.50000001,.0625h-2.50000007v-4.18750012h3.20833343v-.45833335h-3.20833343v-3.91666678h2.50000007c.75000002,0,1.2812494,.51041732,1.60416671,1.52083338,.01041603,.0729173,.02604103,.125,.04166667,.16666667l.22916667,.72916669h.31250001Z"/>
  <path class="cls-13" d="M156.98290466,232.15551432v-.41666668h-1.2291667v-3.87500012h1.47916671l2.50000007,4.29166679h2.35416674c0-.23437467-.0625-.36458402-.18750001-.39583335-.0572923-.01041734-.11979231-.02083333-.18750001-.02083333h-.58333335l-2.52083341-4.02083345c.98437439-.23437469,1.65625069-.75000002,2.02083339-1.54166671,.13541731-.31770771,.20833334-.63541732,.20833334-.95833336,0-.77604105-.34375065-1.40104107-1.02083336-1.87500006-.54166668-.37500001-1.22395901-.56250002-2.04166673-.56250002h-4.62500014v.39583335h1.25000004v8.56250026h-1.25000004v.41666668h3.83333345Zm.33333334-8.97916693c.88541606,0,1.50520774,.36979231,1.85416672,1.1041667,.13541731,.30729231,.20833334,.62500002,.20833334,.95833336,0,.75000002-.26562564,1.33333337-.79166669,1.75000005-.34895898,.28125064-.76041733,.41666668-1.2291667,.41666668h-1.60416671v-4.22916679h1.56250005Z"/>
  <path class="cls-13" d="M168.06790662,232.23884766l3.20833343-9.06250027h.79166669v-.39583335h-2.62500008v.39583335h1.25000004l-2.60416674,7.37500022-2.83333342-7.37500022h1.25000004v-.39583335h-3.54166677v.39583335h.93750003l2.97916676,7.89583357c.21874937,.61458403,.41666668,.96875003,.58333335,1.06250003,.10937469,.06770827,.25000001,.10416667,.41666668,.10416667h.18750001Z"/>
  <path class="cls-13" d="M180.93936696,225.59301413l-.08333334-2.81250008h-7.20833355v.39583335h1.25000004v8.56250026h-1.25000004v.41666668h7.20833355l.08333334-2.81250008h-.31250001l-.22916667,.72916669c-.26562564,.89062534-.64583335,1.4270827-1.14583337,1.60416671-.16666667,.04166667-.33333334,.0625-.50000001,.0625h-2.50000007v-4.18750012h3.20833343v-.45833335h-3.20833343v-3.91666678h2.50000007c.75000002,0,1.2812494,.51041732,1.60416671,1.52083338,.01041603,.0729173,.02604103,.125,.04166667,.16666667l.22916667,.72916669h.31250001Z"/>
  <path class="cls-13" d="M190.77436889,232.15551432l.02083333-3.22916676h-.33333334l-.33333334,1.50000004c-.22395898,.87500003-.73958399,1.31250004-1.54166671,1.31250004h-3.85416678l5.97916684-8.62500026v-.33333334h-6.93750021l-.14583334,2.83333342h.31250001l.60416668-1.41666671c.31770802-.66666669,.73958399-1.00520773,1.27083337-1.02083336h3.39583343l-6.14583352,8.66666692v.31250001h7.70833356Z"/>
  <path class="cls-13" d="M198.82812075,232.15551432c0-.23437467-.08333334-.36458402-.25000001-.39583335-.0572923-.01041734-.1145827-.02083333-.16666667-.02083333h-1.06250003v-8.56250026h.91666669c.83333336,0,1.39583337,.51562565,1.68750005,1.54166671v.08333334l.25000001,1.06250003h.43750001l-.0625-3.08333343h-7.7291669l-.08333334,3.08333343h.43750001l.25000001-1.06250003c.33333334-1.01041733,.90104138-1.55208402,1.70833338-1.62500005h.85416669v8.56250026h-1.50000004v.41666668h4.31250013Z"/>
  <path class="cls-13" d="M202.31935214,223.17634739h1.25000004v5.4583335c.01041603,2.4479161,1.2187494,3.67187477,3.62500011,3.68750011,1.83333339,0,2.94270779-.75520804,3.33333343-2.2708334,.10937437-.45833335,.16666667-.9791667,.16666667-1.56250005v-5.31250016h1.25000004v-.39583335h-3.04166676v.39583335h1.25000004v5.41666683c0,2.01562538-.75000002,3.10416676-2.25000007,3.27083343h-.37500001c-1.26562536,0-2.06250006-.53125065-2.3958334-1.60416671-.15624937-.46875065-.22916667-1.0416667-.22916667-1.70833338v-5.37500016h1.2291667v-.39583335h-3.81250011v.39583335Zm4.45833347-1.97916673c0-.34374874-.15625064-.58333335-.45833335-.70833335-.09895865-.04166667-.20312532-.0625-.31250001-.0625-.34895866,0-.59375065,.15624873-.72916669,.45833335-.04166667,.11458207-.0625,.21875128-.0625,.31250001,0,.36458398,.16666667,.60416668,.50000001,.72916669,.09375064,.04166667,.19270802,.0625,.29166668,.0625,.34375065,0,.58333335-.16666667,.70833335-.50000001,.04166667-.08333334,.0625-.17708207,.0625-.29166668Zm2.85416675,0c0-.34374874-.15624937-.58333335-.45833335-.70833335-.1145827-.04166667-.21875064-.0625-.31250001-.0625-.34895898,0-.59374938,.15624873-.72916669,.45833335-.04166667,.11458207-.0625,.21875128-.0625,.31250001,0,.36458398,.16666667,.60416668,.50000001,.72916669,.09374937,.04166667,.1927077,.0625,.29166668,.0625,.34374937,0,.58333335-.16666667,.70833335-.50000001,.04166667-.08333334,.0625-.17708207,.0625-.29166668Z"/>
  <path class="cls-13" d="M217.44604123,232.15551432c0-.23437467-.08333334-.36458402-.25000001-.39583335-.05729199-.01041734-.11458397-.02083333-.16666667-.02083333h-.81250002v-3.62500011l.81250002-.77083336,3.68750011,4.81250014h2.18750007c0-.23437467-.08333334-.36458402-.25000001-.39583335-.0572923-.01041734-.11458397-.02083333-.16666667-.02083333h-.41666668l-4.08333346-5.31250016,2.79166675-2.58333341c.37500001-.35937437,.66666669-.56770771,.87500003-.62500002,.08333334-.02604103,.1770827-.04166667,.29166668-.04166667,.21874937,0,.35416668-.08333334,.39583335-.25000001v-.14583334h-2.81250008v.39583335h1.25000004l-4.56250014,4.22916679v-4.22916679h1.2291667v-.39583335h-3.83333345v.39583335h1.25000004v8.56250026h-1.25000004v.41666668h3.83333345Z"/>
</svg>