<svg width="30" height="30" viewBox="0 0 32 31" fill="none" xmlns="http://www.w3.org/2000/svg">
<g filter="url(#filter0_d_33_31)">
<mask id="mask0_33_31" style="mask-type:alpha" maskUnits="userSpaceOnUse" x="1" y="0" width="30" height="30">
<rect x="1" width="30" height="30" fill="#D9D9D9"/>
</mask>
<g mask="url(#mask0_33_31)">
<path d="M14.7812 24.3438L13.3438 23C10.8438 20.7083 8.68229 18.5208 6.85938 16.4375C5.03646 14.3542 4.125 12.1979 4.125 9.96875C4.125 8.26042 4.70313 6.82812 5.85938 5.67187C7.01562 4.51562 8.44792 3.9375 10.1562 3.9375C11.1146 3.9375 12.1094 4.18229 13.1406 4.67187C14.1719 5.16146 15.125 6.0625 16 7.375C16.9375 6.0625 17.901 5.16146 18.8906 4.67187C19.8802 4.18229 20.8646 3.9375 21.8438 3.9375C23.5521 3.9375 24.9844 4.51562 26.1406 5.67187C27.2969 6.82812 27.875 8.26042 27.875 9.96875C27.875 12.2188 26.9427 14.3906 25.0781 16.4844C23.2135 18.5781 21.0729 20.75 18.6562 23L17.2188 24.3125C16.8646 24.625 16.4583 24.7813 16 24.7813C15.5417 24.7813 15.1354 24.6354 14.7812 24.3438ZM15.375 8.96875C14.7292 7.80208 13.9479 6.90625 13.0312 6.28125C12.1146 5.65625 11.1562 5.34375 10.1562 5.34375C8.80208 5.34375 7.69271 5.78125 6.82812 6.65625C5.96354 7.53125 5.53125 8.63542 5.53125 9.96875C5.53125 11.0729 5.86979 12.2083 6.54688 13.375C7.22396 14.5417 8.07292 15.7031 9.09375 16.8594C10.1146 18.0156 11.2188 19.1406 12.4062 20.2344C13.5938 21.3281 14.7083 22.3438 15.75 23.2812C15.8125 23.3438 15.8958 23.375 16 23.375C16.1042 23.375 16.1875 23.3438 16.25 23.2812C17.2917 22.3646 18.4062 21.3542 19.5938 20.25C20.7812 19.1458 21.8854 18.0156 22.9062 16.8594C23.9271 15.7031 24.776 14.5365 25.4531 13.3594C26.1302 12.1823 26.4688 11.0521 26.4688 9.96875C26.4688 8.63542 26.0312 7.53125 25.1562 6.65625C24.2813 5.78125 23.1771 5.34375 21.8438 5.34375C20.8229 5.34375 19.8594 5.65104 18.9531 6.26562C18.0469 6.88021 17.2604 7.78125 16.5938 8.96875C16.5104 9.09375 16.4167 9.1875 16.3125 9.25C16.2083 9.3125 16.0938 9.34375 15.9688 9.34375C15.8438 9.34375 15.7292 9.3125 15.625 9.25C15.5208 9.1875 15.4375 9.09375 15.375 8.96875Z" fill="#1C1B1F"/>
</g>
</g>
<defs>
<filter id="filter0_d_33_31" x="0.125" y="1.9375" width="31.75" height="28.8438" filterUnits="userSpaceOnUse" color-interpolation-filters="sRGB">
<feFlood flood-opacity="0" result="BackgroundImageFix"/>
<feColorMatrix in="SourceAlpha" type="matrix" values="0 0 0 0 0 0 0 0 0 0 0 0 0 0 0 0 0 0 127 0" result="hardAlpha"/>
<feOffset dy="2"/>
<feGaussianBlur stdDeviation="2"/>
<feComposite in2="hardAlpha" operator="out"/>
<feColorMatrix type="matrix" values="0 0 0 0 0 0 0 0 0 0 0 0 0 0 0 0 0 0 0.25 0"/>
<feBlend mode="normal" in2="BackgroundImageFix" result="effect1_dropShadow_33_31"/>
<feBlend mode="normal" in="SourceGraphic" in2="effect1_dropShadow_33_31" result="shape"/>
</filter>
</defs>
</svg>
