<svg xmlns="http://www.w3.org/2000/svg" height="36" viewBox="0 96 960 960" width="36"><path d="M486.154 763.692q37.923 0 69.449-19.705 31.525-19.705 31.525-61.782 0-34.743-22.269-55.102-22.269-20.359-87.936-45.923-65.051-24.436-92.808-50.36-27.756-25.923-27.756-69.897 0-37.359 27.577-67.269 27.577-29.911 79.551-37.141v-29.718q0-6.872 5.244-12.116 5.243-5.243 12.115-5.243H481q6.872 0 12.115 5.243 5.244 5.244 5.244 12.116v29.718q28.436 2.154 52.628 16.628 24.193 14.474 40.269 38.09 3.77 4.641 1.667 10.346-2.102 5.705-8.051 8.397-6.385 2.693-12.641 1.154-6.257-1.538-10.513-6.949-14.205-17.795-34.051-27.833-19.846-10.038-45.667-10.038-40.744 0-66.013 21.359-25.269 21.359-25.269 53.256 0 32.564 19.359 50.231 19.359 17.666 85.205 41.872 71.026 26.974 98.103 55.615 27.077 28.641 27.077 73.564 0 27.616-11 48.18t-28.398 34.448q-17.397 13.885-39.577 21.462-22.179 7.577-45.128 8.679v30.385q0 7.385-5.244 12.372-5.243 4.987-12.115 4.987t-12.192-5.32q-5.321-5.321-5.321-12.193v-32.231q-35.692-8.461-63.179-27.435-27.488-18.975-46.154-52.103-3.539-5.795-1.141-11.949 2.397-6.154 8.5-8.692 6.538-2.539 12.846-.603 6.308 1.936 9.923 8.244 17.385 29.897 44.526 46.577 27.141 16.679 59.346 16.679ZM480 976q-122 0-221.769-69.461Q158.461 837.077 110 727.462v123.923q0 7.41-4.757 12.167-4.756 4.756-12.166 4.756t-12.167-4.756q-4.756-4.757-4.756-12.167V697.539q0-12.795 8.218-21.013 8.218-8.218 21.012-8.218h153.847q7.41 0 12.166 4.756 4.757 4.757 4.757 12.167t-4.757 12.167q-4.756 4.756-12.166 4.756H136.436q39.743 104.564 135.705 172.282Q368.103 942.154 480 942.154q140.846 0 244.064-92.256 103.218-92.257 119.475-233.872 1.077-8.103 5.872-14.065Q854.205 596 862.308 596q7.256 0 11.744 6.09 4.487 6.089 3.41 13.961-7.616 75.923-41.462 141.705-33.846 65.783-87.077 114.283t-122.192 76.23Q557.769 976 480 976Zm0-766.154q-136.231 0-241.372 89.564-105.141 89.564-122.167 235.795-1.077 8.103-5.871 14.449Q105.795 556 97.692 556q-7.513 0-11.872-6.09-4.359-6.089-3.282-14.73 8.641-79 43.641-144.911 35-65.91 88.487-113.513 53.488-47.602 121.68-74.179Q404.538 176 480 176q119.692 0 221.769 69.846Q803.846 315.692 850 427.615v-127q0-7.41 4.757-12.167 4.756-4.756 12.166-4.756 7.411 0 12.167 4.756 4.756 4.757 4.756 12.167v153.846q0 12.795-8.218 21.013-8.217 8.218-21.012 8.218H700.769q-7.41 0-12.166-4.756-4.757-4.757-4.757-12.167t4.757-12.167q4.756-4.756 12.166-4.756h122.795q-37.436-100.974-133.449-170.487Q594.102 209.846 480 209.846Z"/></svg>