<svg width="30" height="30" viewBox="0 0 30 30" fill="none" xmlns="http://www.w3.org/2000/svg">
<g filter="url(#filter0_d_34_84)">
<mask id="mask0_34_84" style="mask-type:alpha" maskUnits="userSpaceOnUse" x="0" y="0" width="30" height="30">
<rect width="30" height="30" fill="#D9D9D9"/>
</mask>
<g mask="url(#mask0_34_84)">
<path d="M15 18.4687C14.8958 18.4687 14.7865 18.4479 14.6719 18.4062C14.5573 18.3646 14.4583 18.2917 14.375 18.1875L8.4375 12.2812C8.29167 12.1354 8.21875 11.9583 8.21875 11.75C8.21875 11.5417 8.29167 11.3646 8.4375 11.2188C8.60417 11.0729 8.77604 11 8.95313 11C9.13021 11 9.29167 11.0729 9.4375 11.2188L15 16.7812L20.5625 11.2188C20.7083 11.0729 20.875 11 21.0625 11C21.25 11 21.4167 11.0729 21.5625 11.2188C21.7083 11.3646 21.7812 11.5365 21.7812 11.7344C21.7812 11.9323 21.7083 12.1042 21.5625 12.25L15.625 18.1875C15.5417 18.2917 15.4479 18.3646 15.3438 18.4062C15.2396 18.4479 15.125 18.4687 15 18.4687Z" fill="#1C1B1F"/>
</g>
</g>
<defs>
<filter id="filter0_d_34_84" x="4.21875" y="9" width="21.5625" height="15.4688" filterUnits="userSpaceOnUse" color-interpolation-filters="sRGB">
<feFlood flood-opacity="0" result="BackgroundImageFix"/>
<feColorMatrix in="SourceAlpha" type="matrix" values="0 0 0 0 0 0 0 0 0 0 0 0 0 0 0 0 0 0 127 0" result="hardAlpha"/>
<feOffset dy="2"/>
<feGaussianBlur stdDeviation="2"/>
<feComposite in2="hardAlpha" operator="out"/>
<feColorMatrix type="matrix" values="0 0 0 0 0 0 0 0 0 0 0 0 0 0 0 0 0 0 0.25 0"/>
<feBlend mode="normal" in2="BackgroundImageFix" result="effect1_dropShadow_34_84"/>
<feBlend mode="normal" in="SourceGraphic" in2="effect1_dropShadow_34_84" result="shape"/>
</filter>
</defs>
</svg>
