<svg width="30" height="30" viewBox="0 0 30 32" fill="none" xmlns="http://www.w3.org/2000/svg">
<g filter="url(#filter0_d_33_7)">
<mask id="mask0_33_7" style="mask-type:alpha" maskUnits="userSpaceOnUse" x="0" y="0" width="30" height="30">
<rect width="30" height="30" fill="#D9D9D9"/>
</mask>
<g mask="url(#mask0_33_7)">
<path d="M24.1875 25.1562L16.5938 17.5938C15.9688 18.1354 15.2448 18.5573 14.4219 18.8594C13.599 19.1615 12.7396 19.3125 11.8438 19.3125C9.71875 19.3125 7.92187 18.5781 6.45312 17.1094C4.98437 15.6406 4.25 13.8542 4.25 11.75C4.25 9.66667 4.98437 7.89062 6.45312 6.42187C7.92187 4.95312 9.70833 4.21875 11.8125 4.21875C13.9167 4.21875 15.7031 4.95312 17.1719 6.42187C18.6406 7.89062 19.375 9.66667 19.375 11.75C19.375 12.625 19.224 13.4792 18.9219 14.3125C18.6198 15.1458 18.1875 15.8958 17.625 16.5625L25.25 24.1562C25.3958 24.3021 25.4688 24.4688 25.4688 24.6562C25.4688 24.8438 25.3854 25.0104 25.2188 25.1562C25.0729 25.3229 24.8958 25.4062 24.6875 25.4062C24.4792 25.4062 24.3125 25.3229 24.1875 25.1562ZM11.8438 17.9062C13.5312 17.9062 14.9688 17.3073 16.1562 16.1094C17.3437 14.9115 17.9375 13.4583 17.9375 11.75C17.9375 10.0417 17.3437 8.59375 16.1562 7.40625C14.9688 6.21875 13.5312 5.625 11.8438 5.625C10.1146 5.625 8.65625 6.21875 7.46875 7.40625C6.28125 8.59375 5.6875 10.0417 5.6875 11.75C5.6875 13.4583 6.28125 14.9115 7.46875 16.1094C8.65625 17.3073 10.1146 17.9062 11.8438 17.9062Z" fill="#1C1B1F"/>
</g>
</g>
<defs>
<filter id="filter0_d_33_7" x="0.25" y="2.21875" width="29.2188" height="29.1875" filterUnits="userSpaceOnUse" color-interpolation-filters="sRGB">
<feFlood flood-opacity="0" result="BackgroundImageFix"/>
<feColorMatrix in="SourceAlpha" type="matrix" values="0 0 0 0 0 0 0 0 0 0 0 0 0 0 0 0 0 0 127 0" result="hardAlpha"/>
<feOffset dy="2"/>
<feGaussianBlur stdDeviation="2"/>
<feComposite in2="hardAlpha" operator="out"/>
<feColorMatrix type="matrix" values="0 0 0 0 0 0 0 0 0 0 0 0 0 0 0 0 0 0 0.25 0"/>
<feBlend mode="normal" in2="BackgroundImageFix" result="effect1_dropShadow_33_7"/>
<feBlend mode="normal" in="SourceGraphic" in2="effect1_dropShadow_33_7" result="shape"/>
</filter>
</defs>
</svg>
