<svg xmlns="http://www.w3.org/2000/svg" height="36" viewBox="0 96 960 960" width="36"><path d="M222.504 860.462q-43.53 0-73.581-30.146-30.051-30.145-30.051-74.162h-1.949q-20.064-2.564-34.648-19.407-14.583-16.843-14.583-39.054V354.461q0-24.577 16.942-41.519Q101.577 296 126.154 296h476.769q23.718 0 41.09 17.372 17.372 17.371 17.372 41.089v88.257h73.147q6.942 0 12.999 2.82 6.057 2.821 10.008 8.975l129.128 172.949q2.564 3.717 4.102 8.049 1.539 4.332 1.539 9.386v82.026q0 12.423-8.404 20.827-8.404 8.404-20.827 8.404h-32.461q0 44.103-30.471 74.205-30.471 30.103-74 30.103-43.53 0-73.581-30.146-30.051-30.145-30.051-74.162H326.974q0 44.359-30.47 74.333-30.471 29.975-74 29.975Zm.804-33.846q28.974 0 49.397-21.1 20.423-21.101 20.423-49.783 0-28.682-20.423-49.105t-49.397-20.423q-28.975 0-49.783 20.423-20.807 20.423-20.807 49.105t20.807 49.783q20.808 21.1 49.783 21.1Zm-121.77-472.155v343.232q0 4.615 1.539 8.846 1.538 4.23 3.846 7.307t5.769 5.385q3.462 2.308 7.308 3.077h4.307q8.539-28.872 36.182-49.487 27.642-20.616 62.124-20.616 32.944 0 61.332 20.308 28.388 20.308 36.927 49.795h306.667V354.461q0-10.769-7.18-17.692-7.179-6.923-17.436-6.923H126.154q-10.77 0-17.693 6.923-6.923 6.923-6.923 17.692Zm625.411 472.155q28.974 0 49.397-21.1 20.423-21.101 20.423-49.783 0-28.682-20.423-49.105t-49.397-20.423q-28.975 0-49.782 20.423-20.808 20.423-20.808 49.105t20.808 49.783q20.807 21.1 49.782 21.1Zm-65.564-186.257h193.487L730.359 476.564h-68.974v163.795ZM364.615 526Z"/></svg>