<svg width="30" height="33" viewBox="0 0 30 33" fill="none" xmlns="http://www.w3.org/2000/svg">
<g filter="url(#filter0_d_3_103)">
<mask id="mask0_3_103" style="mask-type:alpha" maskUnits="userSpaceOnUse" x="0" y="0" width="30" height="30">
<rect width="30" height="30" fill="#D9D9D9"/>
</mask>
<g mask="url(#mask0_3_103)">
<path d="M7.4375 26.875C6.9375 26.875 6.51042 26.6979 6.15625 26.3438C5.80208 25.9896 5.625 25.5625 5.625 25.0625V9.9375C5.625 9.4375 5.80208 9.01042 6.15625 8.65625C6.51042 8.30208 6.9375 8.125 7.4375 8.125H10.5312V7.59375C10.5312 6.34375 10.9635 5.28646 11.8281 4.42187C12.6927 3.55729 13.75 3.125 15 3.125C16.25 3.125 17.3073 3.55729 18.1719 4.42187C19.0365 5.28646 19.4688 6.34375 19.4688 7.59375V8.125H22.5625C23.0625 8.125 23.4896 8.30208 23.8438 8.65625C24.1979 9.01042 24.375 9.4375 24.375 9.9375V25.0625C24.375 25.5625 24.1979 25.9896 23.8438 26.3438C23.4896 26.6979 23.0625 26.875 22.5625 26.875H7.4375ZM7.4375 25.4688H22.5625C22.6667 25.4688 22.7604 25.4271 22.8438 25.3438C22.9271 25.2604 22.9688 25.1667 22.9688 25.0625V9.9375C22.9688 9.83333 22.9271 9.73958 22.8438 9.65625C22.7604 9.57292 22.6667 9.53125 22.5625 9.53125H19.4688V12.5938C19.4688 12.7812 19.401 12.9427 19.2656 13.0781C19.1302 13.2135 18.9583 13.2812 18.75 13.2812C18.5417 13.2812 18.3698 13.2135 18.2344 13.0781C18.099 12.9427 18.0312 12.7812 18.0312 12.5938V9.53125H11.9688V12.5938C11.9688 12.7812 11.901 12.9427 11.7656 13.0781C11.6302 13.2135 11.4583 13.2812 11.25 13.2812C11.0417 13.2812 10.8698 13.2135 10.7344 13.0781C10.599 12.9427 10.5312 12.7812 10.5312 12.5938V9.53125H7.4375C7.33333 9.53125 7.23958 9.57292 7.15625 9.65625C7.07292 9.73958 7.03125 9.83333 7.03125 9.9375V25.0625C7.03125 25.1667 7.07292 25.2604 7.15625 25.3438C7.23958 25.4271 7.33333 25.4688 7.4375 25.4688ZM11.9688 8.125H18.0312V7.59375C18.0312 6.73958 17.7396 6.01562 17.1562 5.42188C16.5729 4.82813 15.8542 4.53125 15 4.53125C14.1458 4.53125 13.4271 4.82813 12.8437 5.42188C12.2604 6.01562 11.9688 6.73958 11.9688 7.59375V8.125Z" fill="#1C1B1F"/>
</g>
</g>
<defs>
<filter id="filter0_d_3_103" x="1.625" y="1.125" width="26.75" height="31.75" filterUnits="userSpaceOnUse" color-interpolation-filters="sRGB">
<feFlood flood-opacity="0" result="BackgroundImageFix"/>
<feColorMatrix in="SourceAlpha" type="matrix" values="0 0 0 0 0 0 0 0 0 0 0 0 0 0 0 0 0 0 127 0" result="hardAlpha"/>
<feOffset dy="2"/>
<feGaussianBlur stdDeviation="2"/>
<feComposite in2="hardAlpha" operator="out"/>
<feColorMatrix type="matrix" values="0 0 0 0 0 0 0 0 0 0 0 0 0 0 0 0 0 0 0.25 0"/>
<feBlend mode="normal" in2="BackgroundImageFix" result="effect1_dropShadow_3_103"/>
<feBlend mode="normal" in="SourceGraphic" in2="effect1_dropShadow_3_103" result="shape"/>
</filter>
</defs>
</svg>
