<svg width="30" height="30" viewBox="0 0 30 30" fill="none" xmlns="http://www.w3.org/2000/svg">
<mask id="mask0_23_59" style="mask-type:alpha" maskUnits="userSpaceOnUse" x="0" y="0" width="30" height="30">
<rect width="30" height="30" fill="#D9D9D9"/>
</mask>
<g mask="url(#mask0_23_59)">
<path d="M4.78127 23.375C4.57293 23.375 4.40106 23.3073 4.26564 23.1718C4.13022 23.0364 4.06252 22.8646 4.06252 22.6562C4.06252 22.4687 4.13022 22.3073 4.26564 22.1718C4.40106 22.0364 4.57293 21.9687 4.78127 21.9687H10.375C10.5833 21.9687 10.7552 22.0364 10.8906 22.1718C11.0261 22.3073 11.0938 22.4791 11.0938 22.6875C11.0938 22.8958 11.0261 23.0625 10.8906 23.1875C10.7552 23.3125 10.5833 23.375 10.375 23.375H4.78127ZM4.78127 8.03122C4.57293 8.03122 4.40106 7.96351 4.26564 7.82809C4.13022 7.69268 4.06252 7.5208 4.06252 7.31247C4.06252 7.10414 4.13022 6.93747 4.26564 6.81247C4.40106 6.68747 4.57293 6.62497 4.78127 6.62497H15.5313C15.7188 6.62497 15.8854 6.69268 16.0313 6.82809C16.1771 6.96351 16.25 7.13539 16.25 7.34372C16.25 7.53122 16.1771 7.69268 16.0313 7.82809C15.8854 7.96351 15.7188 8.03122 15.5313 8.03122H4.78127ZM14.4688 25.9375C14.2604 25.9375 14.0886 25.8698 13.9531 25.7343C13.8177 25.5989 13.75 25.4271 13.75 25.2187V20.0937C13.75 19.9062 13.8229 19.7448 13.9688 19.6093C14.1146 19.4739 14.2813 19.4062 14.4688 19.4062C14.6771 19.4062 14.849 19.4739 14.9844 19.6093C15.1198 19.7448 15.1875 19.9062 15.1875 20.0937V21.9687H25.2188C25.4271 21.9687 25.599 22.0364 25.7344 22.1718C25.8698 22.3073 25.9375 22.4791 25.9375 22.6875C25.9375 22.8958 25.8698 23.0625 25.7344 23.1875C25.599 23.3125 25.4271 23.375 25.2188 23.375H15.1875V25.2187C15.1875 25.4271 15.1198 25.5989 14.9844 25.7343C14.849 25.8698 14.6771 25.9375 14.4688 25.9375ZM10.375 18.25C10.1667 18.25 10 18.1823 9.87502 18.0468C9.75002 17.9114 9.68752 17.75 9.68752 17.5625V15.7187H4.78127C4.57293 15.7187 4.40106 15.651 4.26564 15.5156C4.13022 15.3802 4.06252 15.2083 4.06252 15C4.06252 14.7916 4.13022 14.6198 4.26564 14.4843C4.40106 14.3489 4.57293 14.2812 4.78127 14.2812H9.68752V12.4062C9.68752 12.2187 9.75522 12.0521 9.89064 11.9062C10.0261 11.7604 10.1979 11.6875 10.4063 11.6875C10.5938 11.6875 10.7552 11.7604 10.8906 11.9062C11.0261 12.0521 11.0938 12.2187 11.0938 12.4062V17.5625C11.0938 17.75 11.0261 17.9114 10.8906 18.0468C10.7552 18.1823 10.5833 18.25 10.375 18.25ZM14.4688 15.7187C14.2813 15.7187 14.1146 15.651 13.9688 15.5156C13.8229 15.3802 13.75 15.2083 13.75 15C13.75 14.7916 13.8229 14.6198 13.9688 14.4843C14.1146 14.3489 14.2813 14.2812 14.4688 14.2812H25.2188C25.4271 14.2812 25.599 14.3489 25.7344 14.4843C25.8698 14.6198 25.9375 14.7916 25.9375 15C25.9375 15.2083 25.8698 15.3802 25.7344 15.5156C25.599 15.651 25.4271 15.7187 25.2188 15.7187H14.4688ZM19.5938 10.5937C19.4063 10.5937 19.2448 10.526 19.1094 10.3906C18.974 10.2552 18.9063 10.0833 18.9063 9.87497V4.78122C18.9063 4.57289 18.974 4.40101 19.1094 4.26559C19.2448 4.13018 19.4167 4.06247 19.625 4.06247C19.8333 4.06247 20 4.13018 20.125 4.26559C20.25 4.40101 20.3125 4.57289 20.3125 4.78122V6.62497H25.2188C25.4271 6.62497 25.599 6.69268 25.7344 6.82809C25.8698 6.96351 25.9375 7.13539 25.9375 7.34372C25.9375 7.53122 25.8698 7.69268 25.7344 7.82809C25.599 7.96351 25.4271 8.03122 25.2188 8.03122H20.3125V9.87497C20.3125 10.0833 20.2448 10.2552 20.1094 10.3906C19.974 10.526 19.8021 10.5937 19.5938 10.5937Z" fill="#1C1B1F"/>
</g>
</svg>
